%
M48
M72
T01C0.01378
T02C0.02953
T03C0.03000
T04C0.03150
T05C0.03200
T06C0.03543
T07C0.04000
T08C0.05000
T09C0.11811
%
T01
X143263Y196382
X184602Y162917
X182633Y147169
X188539Y129453
X204287Y127484
X210192Y131421
X218066Y127484
X233814Y109768
X241688Y119610
X247594Y111736
X251531Y111736
X255468Y107799
X257861Y111154
X261361Y107654
X267279Y107799
X277121Y111736
X273184Y123547
X271216Y127484
X279090Y131421
X294838Y145464
X298775Y143232
X296806Y160949
X291747Y186756
X304247Y193114
X316491Y188508
X283027Y198350
X261373Y198350
X247594Y178665
X237751Y162917
X224188Y166854
X229877Y198350
X229877Y214098
X233814Y214098
X223972Y227878
X220035Y225909
X218066Y229846
X225940Y255437
X196413Y198350
X251531Y139295
X255468Y139295
X259405Y143232
X261373Y155043
X253499Y123547
X286846Y100457
X302712Y90083
X310586Y94020
X318460Y86146
X290999Y82543
X275999Y82543
X260999Y82543
X245999Y82543
X231846Y78272
X208381Y54492
X206846Y45457
X202318Y66461
X204846Y71457
X188499Y61303
X180881Y70457
X182633Y86146
X178696Y97957
X157043Y95988
X145369Y93764
X138657Y89433
X129484Y76303
X139326Y68429
X145232Y105831
X137358Y113705
X180881Y45457
X155074Y32996
X263342Y34965
X298775Y117642
X355861Y164886
X359478Y154805
X359456Y125516
X356278Y111736
X332239Y247563
T02
X157574Y217504
X315054Y222504
T03
X152574Y222504
X157574Y227504
X152574Y212504
X305054Y222504
X310054Y217504
X320054Y217504
T04
X225940Y243626
X241688Y243626
T05
X116610Y109768
X126610Y109768
X126610Y86146
X116610Y86146
X116610Y62524
X126610Y62524
T06
X138755Y164236
X164346Y164236
T07
X200861Y228154
X200861Y215654
X222791Y219020
X244838Y219020
X218755Y186461
X208755Y186461
X198755Y186461
X210980Y95496
X220980Y95496
X225999Y57957
X235999Y57957
X235999Y47957
X225999Y47957
X210980Y32996
X200980Y32996
X189602Y32996
X179602Y32996
X245999Y47957
X245999Y57957
X255999Y57957
X265999Y57957
X265999Y47957
X255999Y47957
X275999Y47957
X275999Y57957
X285999Y57957
X285999Y47957
X295999Y47957
X295999Y57957
X305999Y57957
X315999Y57957
X315999Y47957
X305999Y47957
X325999Y47957
X325999Y57957
X322239Y103862
X332239Y103862
X342239Y103862
X342239Y117642
X332239Y117642
X322239Y117642
X322239Y135358
X332239Y135358
X342239Y135358
X342239Y151106
X332239Y151106
X322239Y151106
T08
X233814Y227484
T09
X121610Y38902
X346019Y38902
X346019Y243626
X121610Y243626
M30
