G75*
%MOIN*%
%OFA0B0*%
%FSLAX25Y25*%
%IPPOS*%
%LPD*%
%AMOC8*
5,1,8,0,0,1.08239X$1,22.5*
%
%ADD10C,0.00000*%
%ADD11C,0.06600*%
%ADD12C,0.06000*%
%ADD13C,0.07400*%
%ADD14R,0.01772X0.05906*%
%ADD15C,0.06000*%
%ADD16C,0.07500*%
%ADD17OC8,0.06000*%
%ADD18OC8,0.05000*%
%ADD19C,0.02578*%
%ADD20C,0.01000*%
%ADD21C,0.02000*%
%ADD22C,0.00600*%
%ADD23C,0.01200*%
%ADD24C,0.19685*%
D10*
X0105861Y0042839D02*
X0105861Y0239689D01*
X0105862Y0239689D02*
X0105868Y0240165D01*
X0105885Y0240640D01*
X0105914Y0241115D01*
X0105954Y0241589D01*
X0106006Y0242062D01*
X0106069Y0242533D01*
X0106143Y0243003D01*
X0106229Y0243471D01*
X0106326Y0243937D01*
X0106434Y0244400D01*
X0106553Y0244860D01*
X0106684Y0245318D01*
X0106825Y0245772D01*
X0106978Y0246223D01*
X0107141Y0246669D01*
X0107315Y0247112D01*
X0107500Y0247550D01*
X0107695Y0247984D01*
X0107901Y0248413D01*
X0108117Y0248837D01*
X0108343Y0249256D01*
X0108579Y0249669D01*
X0108825Y0250076D01*
X0109081Y0250477D01*
X0109347Y0250871D01*
X0109622Y0251260D01*
X0109906Y0251641D01*
X0110199Y0252015D01*
X0110501Y0252383D01*
X0110813Y0252743D01*
X0111132Y0253095D01*
X0111460Y0253439D01*
X0111797Y0253776D01*
X0112141Y0254104D01*
X0112493Y0254423D01*
X0112853Y0254735D01*
X0113221Y0255037D01*
X0113595Y0255330D01*
X0113976Y0255614D01*
X0114365Y0255889D01*
X0114759Y0256155D01*
X0115160Y0256411D01*
X0115567Y0256657D01*
X0115980Y0256893D01*
X0116399Y0257119D01*
X0116823Y0257335D01*
X0117252Y0257541D01*
X0117686Y0257736D01*
X0118124Y0257921D01*
X0118567Y0258095D01*
X0119013Y0258258D01*
X0119464Y0258411D01*
X0119918Y0258552D01*
X0120376Y0258683D01*
X0120836Y0258802D01*
X0121299Y0258910D01*
X0121765Y0259007D01*
X0122233Y0259093D01*
X0122703Y0259167D01*
X0123174Y0259230D01*
X0123647Y0259282D01*
X0124121Y0259322D01*
X0124596Y0259351D01*
X0125071Y0259368D01*
X0125547Y0259374D01*
X0342082Y0259374D01*
X0342558Y0259368D01*
X0343033Y0259351D01*
X0343508Y0259322D01*
X0343982Y0259282D01*
X0344455Y0259230D01*
X0344926Y0259167D01*
X0345396Y0259093D01*
X0345864Y0259007D01*
X0346330Y0258910D01*
X0346793Y0258802D01*
X0347253Y0258683D01*
X0347711Y0258552D01*
X0348165Y0258411D01*
X0348616Y0258258D01*
X0349062Y0258095D01*
X0349505Y0257921D01*
X0349943Y0257736D01*
X0350377Y0257541D01*
X0350806Y0257335D01*
X0351230Y0257119D01*
X0351649Y0256893D01*
X0352062Y0256657D01*
X0352469Y0256411D01*
X0352870Y0256155D01*
X0353264Y0255889D01*
X0353653Y0255614D01*
X0354034Y0255330D01*
X0354408Y0255037D01*
X0354776Y0254735D01*
X0355136Y0254423D01*
X0355488Y0254104D01*
X0355832Y0253776D01*
X0356169Y0253439D01*
X0356497Y0253095D01*
X0356816Y0252743D01*
X0357128Y0252383D01*
X0357430Y0252015D01*
X0357723Y0251641D01*
X0358007Y0251260D01*
X0358282Y0250871D01*
X0358548Y0250477D01*
X0358804Y0250076D01*
X0359050Y0249669D01*
X0359286Y0249256D01*
X0359512Y0248837D01*
X0359728Y0248413D01*
X0359934Y0247984D01*
X0360129Y0247550D01*
X0360314Y0247112D01*
X0360488Y0246669D01*
X0360651Y0246223D01*
X0360804Y0245772D01*
X0360945Y0245318D01*
X0361076Y0244860D01*
X0361195Y0244400D01*
X0361303Y0243937D01*
X0361400Y0243471D01*
X0361486Y0243003D01*
X0361560Y0242533D01*
X0361623Y0242062D01*
X0361675Y0241589D01*
X0361715Y0241115D01*
X0361744Y0240640D01*
X0361761Y0240165D01*
X0361767Y0239689D01*
X0361767Y0042839D01*
X0361761Y0042363D01*
X0361744Y0041888D01*
X0361715Y0041413D01*
X0361675Y0040939D01*
X0361623Y0040466D01*
X0361560Y0039995D01*
X0361486Y0039525D01*
X0361400Y0039057D01*
X0361303Y0038591D01*
X0361195Y0038128D01*
X0361076Y0037668D01*
X0360945Y0037210D01*
X0360804Y0036756D01*
X0360651Y0036305D01*
X0360488Y0035859D01*
X0360314Y0035416D01*
X0360129Y0034978D01*
X0359934Y0034544D01*
X0359728Y0034115D01*
X0359512Y0033691D01*
X0359286Y0033272D01*
X0359050Y0032859D01*
X0358804Y0032452D01*
X0358548Y0032051D01*
X0358282Y0031657D01*
X0358007Y0031268D01*
X0357723Y0030887D01*
X0357430Y0030513D01*
X0357128Y0030145D01*
X0356816Y0029785D01*
X0356497Y0029433D01*
X0356169Y0029089D01*
X0355832Y0028752D01*
X0355488Y0028424D01*
X0355136Y0028105D01*
X0354776Y0027793D01*
X0354408Y0027491D01*
X0354034Y0027198D01*
X0353653Y0026914D01*
X0353264Y0026639D01*
X0352870Y0026373D01*
X0352469Y0026117D01*
X0352062Y0025871D01*
X0351649Y0025635D01*
X0351230Y0025409D01*
X0350806Y0025193D01*
X0350377Y0024987D01*
X0349943Y0024792D01*
X0349505Y0024607D01*
X0349062Y0024433D01*
X0348616Y0024270D01*
X0348165Y0024117D01*
X0347711Y0023976D01*
X0347253Y0023845D01*
X0346793Y0023726D01*
X0346330Y0023618D01*
X0345864Y0023521D01*
X0345396Y0023435D01*
X0344926Y0023361D01*
X0344455Y0023298D01*
X0343982Y0023246D01*
X0343508Y0023206D01*
X0343033Y0023177D01*
X0342558Y0023160D01*
X0342082Y0023154D01*
X0125547Y0023154D01*
X0125071Y0023160D01*
X0124596Y0023177D01*
X0124121Y0023206D01*
X0123647Y0023246D01*
X0123174Y0023298D01*
X0122703Y0023361D01*
X0122233Y0023435D01*
X0121765Y0023521D01*
X0121299Y0023618D01*
X0120836Y0023726D01*
X0120376Y0023845D01*
X0119918Y0023976D01*
X0119464Y0024117D01*
X0119013Y0024270D01*
X0118567Y0024433D01*
X0118124Y0024607D01*
X0117686Y0024792D01*
X0117252Y0024987D01*
X0116823Y0025193D01*
X0116399Y0025409D01*
X0115980Y0025635D01*
X0115567Y0025871D01*
X0115160Y0026117D01*
X0114759Y0026373D01*
X0114365Y0026639D01*
X0113976Y0026914D01*
X0113595Y0027198D01*
X0113221Y0027491D01*
X0112853Y0027793D01*
X0112493Y0028105D01*
X0112141Y0028424D01*
X0111797Y0028752D01*
X0111460Y0029089D01*
X0111132Y0029433D01*
X0110813Y0029785D01*
X0110501Y0030145D01*
X0110199Y0030513D01*
X0109906Y0030887D01*
X0109622Y0031268D01*
X0109347Y0031657D01*
X0109081Y0032051D01*
X0108825Y0032452D01*
X0108579Y0032859D01*
X0108343Y0033272D01*
X0108117Y0033691D01*
X0107901Y0034115D01*
X0107695Y0034544D01*
X0107500Y0034978D01*
X0107315Y0035416D01*
X0107141Y0035859D01*
X0106978Y0036305D01*
X0106825Y0036756D01*
X0106684Y0037210D01*
X0106553Y0037668D01*
X0106434Y0038128D01*
X0106326Y0038591D01*
X0106229Y0039057D01*
X0106143Y0039525D01*
X0106069Y0039995D01*
X0106006Y0040466D01*
X0105954Y0040939D01*
X0105914Y0041413D01*
X0105885Y0041888D01*
X0105868Y0042363D01*
X0105862Y0042839D01*
D11*
X0225940Y0243626D03*
X0241688Y0243626D03*
D12*
X0189602Y0035996D02*
X0189602Y0029996D01*
X0179602Y0029996D02*
X0179602Y0035996D01*
D13*
X0200980Y0032996D03*
X0210980Y0032996D03*
X0225999Y0047957D03*
X0225999Y0057957D03*
X0255999Y0057957D03*
X0265999Y0057957D03*
X0265999Y0047957D03*
X0255999Y0047957D03*
X0275999Y0047957D03*
X0275999Y0057957D03*
X0285999Y0057957D03*
X0285999Y0047957D03*
X0295999Y0047957D03*
X0295999Y0057957D03*
X0305999Y0057957D03*
X0315999Y0057957D03*
X0315999Y0047957D03*
X0305999Y0047957D03*
X0325999Y0047957D03*
X0325999Y0057957D03*
X0322239Y0103862D03*
X0332239Y0103862D03*
X0342239Y0103862D03*
X0342239Y0117642D03*
X0332239Y0117642D03*
X0322239Y0117642D03*
X0322239Y0135358D03*
X0332239Y0135358D03*
X0342239Y0135358D03*
X0342239Y0151106D03*
X0332239Y0151106D03*
X0322239Y0151106D03*
X0220980Y0095496D03*
X0210980Y0095496D03*
X0164346Y0164236D03*
X0138755Y0164236D03*
X0126610Y0109768D03*
X0116610Y0109768D03*
X0116610Y0086146D03*
X0126610Y0086146D03*
X0126610Y0062524D03*
X0116610Y0062524D03*
X0198755Y0186461D03*
X0208755Y0186461D03*
X0218755Y0186461D03*
X0200861Y0215654D03*
X0200861Y0228154D03*
D14*
X0228696Y0220004D03*
X0231255Y0220004D03*
X0233814Y0220004D03*
X0236373Y0220004D03*
X0238932Y0220004D03*
D15*
X0244838Y0219020D03*
X0222791Y0219020D03*
D16*
X0233814Y0227484D03*
D17*
X0235999Y0057957D03*
X0235999Y0047957D03*
X0245999Y0047957D03*
X0245999Y0057957D03*
D18*
X0152574Y0212504D03*
X0157574Y0217504D03*
X0152574Y0222504D03*
X0157574Y0227504D03*
X0305054Y0222504D03*
X0310054Y0217504D03*
X0315054Y0222504D03*
X0320054Y0217504D03*
D19*
X0304247Y0193114D03*
X0316491Y0188508D03*
X0291747Y0186756D03*
X0283027Y0198350D03*
X0261373Y0198350D03*
X0247594Y0178665D03*
X0237751Y0162917D03*
X0224188Y0166854D03*
X0229877Y0198350D03*
X0229877Y0214098D03*
X0233814Y0214098D03*
X0223972Y0227878D03*
X0220035Y0225909D03*
X0218066Y0229846D03*
X0225940Y0255437D03*
X0196413Y0198350D03*
X0184602Y0162917D03*
X0182633Y0147169D03*
X0188539Y0129453D03*
X0204287Y0127484D03*
X0210192Y0131421D03*
X0218066Y0127484D03*
X0233814Y0109768D03*
X0241688Y0119610D03*
X0247594Y0111736D03*
X0251531Y0111736D03*
X0255468Y0107799D03*
X0257861Y0111154D03*
X0261361Y0107654D03*
X0267279Y0107799D03*
X0277121Y0111736D03*
X0273184Y0123547D03*
X0271216Y0127484D03*
X0279090Y0131421D03*
X0294838Y0145464D03*
X0298775Y0143232D03*
X0296806Y0160949D03*
X0261373Y0155043D03*
X0259405Y0143232D03*
X0255468Y0139295D03*
X0251531Y0139295D03*
X0253499Y0123547D03*
X0286846Y0100457D03*
X0302712Y0090083D03*
X0310586Y0094020D03*
X0318460Y0086146D03*
X0290999Y0082543D03*
X0275999Y0082543D03*
X0260999Y0082543D03*
X0245999Y0082543D03*
X0231846Y0078272D03*
X0208381Y0054492D03*
X0206846Y0045457D03*
X0202318Y0066461D03*
X0204846Y0071457D03*
X0188499Y0061303D03*
X0180881Y0070457D03*
X0182633Y0086146D03*
X0178696Y0097957D03*
X0157043Y0095988D03*
X0145369Y0093764D03*
X0138657Y0089433D03*
X0129484Y0076303D03*
X0139326Y0068429D03*
X0145232Y0105831D03*
X0137358Y0113705D03*
X0180881Y0045457D03*
X0155074Y0032996D03*
X0263342Y0034965D03*
X0298775Y0117642D03*
X0355861Y0164886D03*
X0359478Y0154805D03*
X0359456Y0125516D03*
X0356278Y0111736D03*
X0332239Y0247563D03*
X0143263Y0196382D03*
D20*
X0151083Y0208904D02*
X0154065Y0208904D01*
X0156174Y0211013D01*
X0156174Y0213904D01*
X0159065Y0213904D01*
X0161174Y0216013D01*
X0161174Y0218995D01*
X0159065Y0221104D01*
X0156174Y0221104D01*
X0156174Y0223904D01*
X0159065Y0223904D01*
X0161174Y0226013D01*
X0161174Y0228995D01*
X0159065Y0231104D01*
X0156083Y0231104D01*
X0153974Y0228995D01*
X0153974Y0226104D01*
X0151083Y0226104D01*
X0148974Y0223995D01*
X0148974Y0221013D01*
X0151083Y0218904D01*
X0153974Y0218904D01*
X0153974Y0216104D01*
X0151083Y0216104D01*
X0148974Y0213995D01*
X0148974Y0211013D01*
X0151083Y0208904D01*
X0150112Y0209875D02*
X0107361Y0209875D01*
X0107361Y0208877D02*
X0360267Y0208877D01*
X0360267Y0209875D02*
X0155036Y0209875D01*
X0156035Y0210874D02*
X0199858Y0210874D01*
X0199907Y0210854D02*
X0201816Y0210854D01*
X0203580Y0211584D01*
X0204931Y0212935D01*
X0205661Y0214699D01*
X0205661Y0216608D01*
X0204931Y0218373D01*
X0203580Y0219723D01*
X0201816Y0220454D01*
X0199907Y0220454D01*
X0198143Y0219723D01*
X0196792Y0218373D01*
X0196061Y0216608D01*
X0196061Y0214699D01*
X0196792Y0212935D01*
X0198143Y0211584D01*
X0199907Y0210854D01*
X0201865Y0210874D02*
X0360267Y0210874D01*
X0360267Y0211872D02*
X0234967Y0211872D01*
X0234804Y0211709D02*
X0236203Y0213109D01*
X0236203Y0215088D01*
X0235414Y0215877D01*
X0235414Y0215951D01*
X0237025Y0215951D01*
X0237126Y0215851D01*
X0237468Y0215653D01*
X0237849Y0215551D01*
X0238932Y0215551D01*
X0238932Y0220004D01*
X0238932Y0224457D01*
X0238104Y0224457D01*
X0238304Y0224733D01*
X0238680Y0225469D01*
X0238935Y0226255D01*
X0239050Y0226984D01*
X0234314Y0226984D01*
X0234314Y0227984D01*
X0233314Y0227984D01*
X0233314Y0232720D01*
X0232585Y0232605D01*
X0231799Y0232350D01*
X0231063Y0231974D01*
X0230394Y0231489D01*
X0229810Y0230904D01*
X0229517Y0230501D01*
X0220697Y0239320D01*
X0215435Y0239320D01*
X0214498Y0238383D01*
X0208592Y0232478D01*
X0208592Y0229184D01*
X0209529Y0228246D01*
X0217403Y0220372D01*
X0218499Y0220372D01*
X0218401Y0220073D01*
X0218314Y0219520D01*
X0222291Y0219520D01*
X0222291Y0218520D01*
X0223291Y0218520D01*
X0223291Y0214543D01*
X0223844Y0214630D01*
X0224518Y0214849D01*
X0225149Y0215171D01*
X0225722Y0215587D01*
X0226223Y0216088D01*
X0226639Y0216661D01*
X0226710Y0216800D01*
X0226710Y0216596D01*
X0227355Y0215951D01*
X0228351Y0215951D01*
X0227488Y0215088D01*
X0227488Y0213109D01*
X0228888Y0211709D01*
X0230867Y0211709D01*
X0231846Y0212688D01*
X0232825Y0211709D01*
X0234804Y0211709D01*
X0235965Y0212871D02*
X0360267Y0212871D01*
X0360267Y0213869D02*
X0236203Y0213869D01*
X0236203Y0214868D02*
X0243074Y0214868D01*
X0243110Y0214849D02*
X0243784Y0214630D01*
X0244338Y0214543D01*
X0244338Y0218520D01*
X0245338Y0218520D01*
X0245338Y0219520D01*
X0244338Y0219520D01*
X0244338Y0223497D01*
X0243784Y0223409D01*
X0243110Y0223190D01*
X0242479Y0222868D01*
X0241906Y0222452D01*
X0241405Y0221951D01*
X0241318Y0221831D01*
X0241318Y0223154D01*
X0241216Y0223536D01*
X0241018Y0223878D01*
X0240739Y0224157D01*
X0240397Y0224354D01*
X0240016Y0224457D01*
X0238932Y0224457D01*
X0238932Y0220004D01*
X0238932Y0220004D01*
X0238932Y0220004D01*
X0238932Y0215551D01*
X0240016Y0215551D01*
X0240397Y0215653D01*
X0240739Y0215851D01*
X0241018Y0216130D01*
X0241176Y0216404D01*
X0241405Y0216088D01*
X0241906Y0215587D01*
X0242479Y0215171D01*
X0243110Y0214849D01*
X0244338Y0214868D02*
X0245338Y0214868D01*
X0245338Y0214543D02*
X0245892Y0214630D01*
X0246565Y0214849D01*
X0247196Y0215171D01*
X0247769Y0215587D01*
X0248270Y0216088D01*
X0248687Y0216661D01*
X0249008Y0217292D01*
X0249227Y0217966D01*
X0249315Y0218520D01*
X0245338Y0218520D01*
X0245338Y0214543D01*
X0246601Y0214868D02*
X0307599Y0214868D01*
X0308563Y0213904D02*
X0311546Y0213904D01*
X0313654Y0216013D01*
X0313654Y0218904D01*
X0316454Y0218904D01*
X0316454Y0216013D01*
X0318563Y0213904D01*
X0321546Y0213904D01*
X0323654Y0216013D01*
X0323654Y0218995D01*
X0321546Y0221104D01*
X0318654Y0221104D01*
X0318654Y0223995D01*
X0316546Y0226104D01*
X0313563Y0226104D01*
X0311454Y0223995D01*
X0311454Y0221104D01*
X0308654Y0221104D01*
X0308654Y0223995D01*
X0306546Y0226104D01*
X0303563Y0226104D01*
X0301454Y0223995D01*
X0301454Y0221013D01*
X0303563Y0218904D01*
X0306454Y0218904D01*
X0306454Y0216013D01*
X0308563Y0213904D01*
X0306601Y0215866D02*
X0248048Y0215866D01*
X0248790Y0216865D02*
X0306454Y0216865D01*
X0306454Y0217863D02*
X0249194Y0217863D01*
X0249315Y0219520D02*
X0249227Y0220073D01*
X0249008Y0220747D01*
X0248687Y0221378D01*
X0248270Y0221951D01*
X0247769Y0222452D01*
X0247196Y0222868D01*
X0246565Y0223190D01*
X0245892Y0223409D01*
X0245338Y0223497D01*
X0245338Y0219520D01*
X0249315Y0219520D01*
X0249261Y0219860D02*
X0302607Y0219860D01*
X0301608Y0220859D02*
X0248951Y0220859D01*
X0248339Y0221857D02*
X0301454Y0221857D01*
X0301454Y0222856D02*
X0247214Y0222856D01*
X0245338Y0222856D02*
X0244338Y0222856D01*
X0244338Y0221857D02*
X0245338Y0221857D01*
X0245338Y0220859D02*
X0244338Y0220859D01*
X0244338Y0219860D02*
X0245338Y0219860D01*
X0245338Y0218862D02*
X0306454Y0218862D01*
X0308654Y0221857D02*
X0311454Y0221857D01*
X0311454Y0222856D02*
X0308654Y0222856D01*
X0308654Y0223854D02*
X0311454Y0223854D01*
X0312312Y0224853D02*
X0307797Y0224853D01*
X0306798Y0225851D02*
X0313311Y0225851D01*
X0316798Y0225851D02*
X0360267Y0225851D01*
X0360267Y0224853D02*
X0317797Y0224853D01*
X0318654Y0223854D02*
X0360267Y0223854D01*
X0360267Y0222856D02*
X0318654Y0222856D01*
X0318654Y0221857D02*
X0360267Y0221857D01*
X0360267Y0220859D02*
X0321791Y0220859D01*
X0322789Y0219860D02*
X0360267Y0219860D01*
X0360267Y0218862D02*
X0323654Y0218862D01*
X0323654Y0217863D02*
X0360267Y0217863D01*
X0360267Y0216865D02*
X0323654Y0216865D01*
X0323508Y0215866D02*
X0360267Y0215866D01*
X0360267Y0214868D02*
X0322509Y0214868D01*
X0317599Y0214868D02*
X0312509Y0214868D01*
X0313508Y0215866D02*
X0316601Y0215866D01*
X0316454Y0216865D02*
X0313654Y0216865D01*
X0313654Y0217863D02*
X0316454Y0217863D01*
X0316454Y0218862D02*
X0313654Y0218862D01*
X0303311Y0225851D02*
X0238804Y0225851D01*
X0239029Y0226850D02*
X0360267Y0226850D01*
X0360267Y0227848D02*
X0234314Y0227848D01*
X0234314Y0227984D02*
X0239050Y0227984D01*
X0238935Y0228714D01*
X0238680Y0229500D01*
X0238304Y0230236D01*
X0237819Y0230904D01*
X0237234Y0231489D01*
X0236566Y0231974D01*
X0235830Y0232350D01*
X0235044Y0232605D01*
X0234314Y0232720D01*
X0234314Y0227984D01*
X0234314Y0228847D02*
X0233314Y0228847D01*
X0233314Y0229845D02*
X0234314Y0229845D01*
X0234314Y0230844D02*
X0233314Y0230844D01*
X0233314Y0231842D02*
X0234314Y0231842D01*
X0236748Y0231842D02*
X0360267Y0231842D01*
X0360267Y0230844D02*
X0237863Y0230844D01*
X0238503Y0229845D02*
X0360267Y0229845D01*
X0360267Y0228847D02*
X0238892Y0228847D01*
X0238366Y0224853D02*
X0302312Y0224853D01*
X0301454Y0223854D02*
X0241032Y0223854D01*
X0241318Y0222856D02*
X0242462Y0222856D01*
X0241337Y0221857D02*
X0241318Y0221857D01*
X0238932Y0221857D02*
X0238932Y0221857D01*
X0238932Y0220859D02*
X0238932Y0220859D01*
X0238932Y0219860D02*
X0238932Y0219860D01*
X0238932Y0218862D02*
X0238932Y0218862D01*
X0238932Y0217863D02*
X0238932Y0217863D01*
X0238932Y0216865D02*
X0238932Y0216865D01*
X0238932Y0215866D02*
X0238932Y0215866D01*
X0237110Y0215866D02*
X0235425Y0215866D01*
X0233814Y0214098D02*
X0233814Y0220004D01*
X0231255Y0220004D02*
X0231255Y0215476D01*
X0229877Y0214098D01*
X0228267Y0215866D02*
X0226001Y0215866D01*
X0224554Y0214868D02*
X0227488Y0214868D01*
X0227488Y0213869D02*
X0205318Y0213869D01*
X0205661Y0214868D02*
X0221027Y0214868D01*
X0221063Y0214849D02*
X0221737Y0214630D01*
X0222291Y0214543D01*
X0222291Y0218520D01*
X0218314Y0218520D01*
X0218401Y0217966D01*
X0218620Y0217292D01*
X0218942Y0216661D01*
X0219358Y0216088D01*
X0219859Y0215587D01*
X0220432Y0215171D01*
X0221063Y0214849D01*
X0222291Y0214868D02*
X0223291Y0214868D01*
X0223291Y0215866D02*
X0222291Y0215866D01*
X0222291Y0216865D02*
X0223291Y0216865D01*
X0223291Y0217863D02*
X0222291Y0217863D01*
X0222291Y0218862D02*
X0204441Y0218862D01*
X0205142Y0217863D02*
X0218435Y0217863D01*
X0218838Y0216865D02*
X0205555Y0216865D01*
X0205661Y0215866D02*
X0219580Y0215866D01*
X0218368Y0219860D02*
X0203249Y0219860D01*
X0201816Y0223354D02*
X0199907Y0223354D01*
X0198143Y0224084D01*
X0196792Y0225435D01*
X0196061Y0227199D01*
X0196061Y0229108D01*
X0196792Y0230873D01*
X0198143Y0232223D01*
X0199907Y0232954D01*
X0201816Y0232954D01*
X0203580Y0232223D01*
X0204931Y0230873D01*
X0205661Y0229108D01*
X0205661Y0227199D01*
X0204931Y0225435D01*
X0203580Y0224084D01*
X0201816Y0223354D01*
X0203025Y0223854D02*
X0213922Y0223854D01*
X0214920Y0222856D02*
X0156174Y0222856D01*
X0156174Y0223854D02*
X0198698Y0223854D01*
X0197374Y0224853D02*
X0160014Y0224853D01*
X0161013Y0225851D02*
X0196620Y0225851D01*
X0196206Y0226850D02*
X0161174Y0226850D01*
X0161174Y0227848D02*
X0196061Y0227848D01*
X0196061Y0228847D02*
X0161174Y0228847D01*
X0160324Y0229845D02*
X0196367Y0229845D01*
X0196780Y0230844D02*
X0159325Y0230844D01*
X0155823Y0230844D02*
X0107361Y0230844D01*
X0107361Y0231842D02*
X0197762Y0231842D01*
X0199635Y0232841D02*
X0123638Y0232841D01*
X0123050Y0232683D02*
X0125833Y0233429D01*
X0128328Y0234870D01*
X0130366Y0236907D01*
X0131806Y0239402D01*
X0132552Y0242185D01*
X0132552Y0245067D01*
X0131806Y0247850D01*
X0130366Y0250345D01*
X0128328Y0252382D01*
X0125833Y0253823D01*
X0123050Y0254568D01*
X0120169Y0254568D01*
X0117386Y0253823D01*
X0114891Y0252382D01*
X0112853Y0250345D01*
X0111413Y0247850D01*
X0110667Y0245067D01*
X0110667Y0242185D01*
X0111413Y0239402D01*
X0112853Y0236907D01*
X0114891Y0234870D01*
X0117386Y0233429D01*
X0120169Y0232683D01*
X0123050Y0232683D01*
X0119581Y0232841D02*
X0107361Y0232841D01*
X0107361Y0233839D02*
X0116675Y0233839D01*
X0114946Y0234838D02*
X0107361Y0234838D01*
X0107361Y0235836D02*
X0113924Y0235836D01*
X0112925Y0236835D02*
X0107361Y0236835D01*
X0107361Y0237833D02*
X0112318Y0237833D01*
X0111742Y0238832D02*
X0107361Y0238832D01*
X0107361Y0239689D02*
X0107476Y0241725D01*
X0108382Y0245695D01*
X0110149Y0249364D01*
X0112688Y0252548D01*
X0115871Y0255087D01*
X0119540Y0256854D01*
X0123510Y0257760D01*
X0125547Y0257874D01*
X0342082Y0257874D01*
X0344118Y0257760D01*
X0348088Y0256854D01*
X0351757Y0255087D01*
X0354941Y0252548D01*
X0357480Y0249364D01*
X0359247Y0245695D01*
X0360153Y0241725D01*
X0360267Y0239689D01*
X0360267Y0157194D01*
X0358488Y0157194D01*
X0357089Y0155795D01*
X0357089Y0153816D01*
X0357878Y0153027D01*
X0357878Y0129795D01*
X0355199Y0127116D01*
X0275257Y0127116D01*
X0274837Y0127536D01*
X0273605Y0127536D01*
X0273605Y0128474D01*
X0272257Y0129821D01*
X0277311Y0129821D01*
X0278100Y0129032D01*
X0280079Y0129032D01*
X0281479Y0130432D01*
X0281479Y0132411D01*
X0280079Y0133810D01*
X0278100Y0133810D01*
X0277311Y0133021D01*
X0260711Y0133021D01*
X0259773Y0132084D01*
X0253626Y0125936D01*
X0252510Y0125936D01*
X0251110Y0124537D01*
X0251110Y0122558D01*
X0252510Y0121158D01*
X0254489Y0121158D01*
X0255888Y0122558D01*
X0255888Y0123673D01*
X0262036Y0129821D01*
X0270174Y0129821D01*
X0268827Y0128474D01*
X0268827Y0126495D01*
X0270226Y0125095D01*
X0271342Y0125095D01*
X0271348Y0125089D01*
X0270795Y0124537D01*
X0270795Y0122558D01*
X0272195Y0121158D01*
X0274174Y0121158D01*
X0274963Y0121947D01*
X0320091Y0121947D01*
X0319520Y0121711D01*
X0318170Y0120361D01*
X0317439Y0118597D01*
X0317439Y0116687D01*
X0318170Y0114923D01*
X0319520Y0113572D01*
X0320091Y0113336D01*
X0278900Y0113336D01*
X0278111Y0114125D01*
X0276132Y0114125D01*
X0274732Y0112726D01*
X0274732Y0110747D01*
X0276132Y0109347D01*
X0278111Y0109347D01*
X0278900Y0110136D01*
X0354499Y0110136D01*
X0355288Y0109347D01*
X0357268Y0109347D01*
X0358667Y0110747D01*
X0358667Y0112726D01*
X0357268Y0114125D01*
X0355288Y0114125D01*
X0354499Y0113336D01*
X0344388Y0113336D01*
X0344958Y0113572D01*
X0346309Y0114923D01*
X0347039Y0116687D01*
X0347039Y0118597D01*
X0346309Y0120361D01*
X0344958Y0121711D01*
X0344388Y0121947D01*
X0358150Y0121947D01*
X0359330Y0123127D01*
X0360267Y0123127D01*
X0360267Y0042839D01*
X0360153Y0040802D01*
X0359247Y0036832D01*
X0357480Y0033164D01*
X0354941Y0029980D01*
X0351757Y0027441D01*
X0348088Y0025674D01*
X0344118Y0024768D01*
X0342082Y0024654D01*
X0125547Y0024654D01*
X0123510Y0024768D01*
X0119540Y0025674D01*
X0115871Y0027441D01*
X0112688Y0029980D01*
X0110149Y0033164D01*
X0108382Y0036832D01*
X0107476Y0040802D01*
X0107361Y0042839D01*
X0107361Y0043460D01*
X0107361Y0239689D01*
X0107369Y0239830D02*
X0111298Y0239830D01*
X0111030Y0240829D02*
X0107425Y0240829D01*
X0107499Y0241828D02*
X0110763Y0241828D01*
X0110667Y0242826D02*
X0107727Y0242826D01*
X0107955Y0243825D02*
X0110667Y0243825D01*
X0110667Y0244823D02*
X0108183Y0244823D01*
X0108443Y0245822D02*
X0110869Y0245822D01*
X0111137Y0246820D02*
X0108924Y0246820D01*
X0109405Y0247819D02*
X0111404Y0247819D01*
X0111971Y0248817D02*
X0109885Y0248817D01*
X0110509Y0249816D02*
X0112548Y0249816D01*
X0113323Y0250814D02*
X0111305Y0250814D01*
X0112102Y0251813D02*
X0114321Y0251813D01*
X0113018Y0252811D02*
X0115634Y0252811D01*
X0114270Y0253810D02*
X0117363Y0253810D01*
X0115871Y0255087D02*
X0115871Y0255087D01*
X0115522Y0254808D02*
X0352106Y0254808D01*
X0353358Y0253810D02*
X0350265Y0253810D01*
X0350243Y0253823D02*
X0347460Y0254568D01*
X0344578Y0254568D01*
X0341795Y0253823D01*
X0339300Y0252382D01*
X0337263Y0250345D01*
X0335822Y0247850D01*
X0335076Y0245067D01*
X0335076Y0242185D01*
X0335822Y0239402D01*
X0337263Y0236907D01*
X0339300Y0234870D01*
X0341795Y0233429D01*
X0344578Y0232683D01*
X0347460Y0232683D01*
X0350243Y0233429D01*
X0352738Y0234870D01*
X0354775Y0236907D01*
X0356216Y0239402D01*
X0356961Y0242185D01*
X0356961Y0245067D01*
X0356216Y0247850D01*
X0354775Y0250345D01*
X0352738Y0252382D01*
X0350243Y0253823D01*
X0350262Y0255807D02*
X0117367Y0255807D01*
X0119440Y0256805D02*
X0348188Y0256805D01*
X0343334Y0257804D02*
X0124295Y0257804D01*
X0125856Y0253810D02*
X0341773Y0253810D01*
X0340043Y0252811D02*
X0127585Y0252811D01*
X0128898Y0251813D02*
X0338731Y0251813D01*
X0337732Y0250814D02*
X0129896Y0250814D01*
X0130671Y0249816D02*
X0331114Y0249816D01*
X0331250Y0249952D02*
X0330461Y0249163D01*
X0244637Y0249163D01*
X0244174Y0249626D01*
X0229677Y0249626D01*
X0227708Y0247656D01*
X0226815Y0248026D01*
X0225065Y0248026D01*
X0223448Y0247356D01*
X0222210Y0246118D01*
X0221540Y0244501D01*
X0221540Y0242751D01*
X0222210Y0241134D01*
X0223448Y0239896D01*
X0225065Y0239226D01*
X0226815Y0239226D01*
X0228433Y0239896D01*
X0229670Y0241134D01*
X0230340Y0242751D01*
X0230340Y0244501D01*
X0229971Y0245394D01*
X0231003Y0246426D01*
X0238266Y0246426D01*
X0237958Y0246118D01*
X0237288Y0244501D01*
X0237288Y0242751D01*
X0237958Y0241134D01*
X0239196Y0239896D01*
X0240813Y0239226D01*
X0242563Y0239226D01*
X0244181Y0239896D01*
X0245418Y0241134D01*
X0246088Y0242751D01*
X0246088Y0244501D01*
X0245483Y0245963D01*
X0330461Y0245963D01*
X0331250Y0245174D01*
X0333229Y0245174D01*
X0334628Y0246573D01*
X0334628Y0248553D01*
X0333229Y0249952D01*
X0331250Y0249952D01*
X0333365Y0249816D02*
X0336957Y0249816D01*
X0336381Y0248817D02*
X0334364Y0248817D01*
X0334628Y0247819D02*
X0335814Y0247819D01*
X0335546Y0246820D02*
X0334628Y0246820D01*
X0335279Y0245822D02*
X0333877Y0245822D01*
X0335076Y0244823D02*
X0245955Y0244823D01*
X0246088Y0243825D02*
X0335076Y0243825D01*
X0335076Y0242826D02*
X0246088Y0242826D01*
X0245706Y0241828D02*
X0335172Y0241828D01*
X0335440Y0240829D02*
X0245114Y0240829D01*
X0244023Y0239830D02*
X0335707Y0239830D01*
X0336151Y0238832D02*
X0221186Y0238832D01*
X0222184Y0237833D02*
X0336728Y0237833D01*
X0337335Y0236835D02*
X0223183Y0236835D01*
X0224181Y0235836D02*
X0338333Y0235836D01*
X0339355Y0234838D02*
X0225180Y0234838D01*
X0226178Y0233839D02*
X0341085Y0233839D01*
X0343991Y0232841D02*
X0227177Y0232841D01*
X0228176Y0231842D02*
X0230881Y0231842D01*
X0229766Y0230844D02*
X0229174Y0230844D01*
X0227910Y0229845D02*
X0210193Y0229845D01*
X0210192Y0229846D02*
X0210192Y0231815D01*
X0216098Y0237720D01*
X0220035Y0237720D01*
X0229064Y0228691D01*
X0228964Y0228449D01*
X0228964Y0226520D01*
X0229703Y0224737D01*
X0229877Y0224562D01*
X0229877Y0224430D01*
X0229779Y0224457D01*
X0228696Y0224457D01*
X0227613Y0224457D01*
X0227231Y0224354D01*
X0226889Y0224157D01*
X0226610Y0223878D01*
X0226413Y0223536D01*
X0226310Y0223154D01*
X0226310Y0221972D01*
X0225636Y0221972D01*
X0225113Y0222495D01*
X0223606Y0223120D01*
X0221975Y0223120D01*
X0220468Y0222495D01*
X0219945Y0221972D01*
X0218066Y0221972D01*
X0210192Y0229846D01*
X0210192Y0230844D02*
X0226911Y0230844D01*
X0225913Y0231842D02*
X0210220Y0231842D01*
X0211218Y0232841D02*
X0224914Y0232841D01*
X0223916Y0233839D02*
X0212217Y0233839D01*
X0213215Y0234838D02*
X0222917Y0234838D01*
X0221919Y0235836D02*
X0214214Y0235836D01*
X0215212Y0236835D02*
X0220920Y0236835D01*
X0223606Y0239830D02*
X0131921Y0239830D01*
X0132189Y0240829D02*
X0222515Y0240829D01*
X0221923Y0241828D02*
X0132456Y0241828D01*
X0132552Y0242826D02*
X0221540Y0242826D01*
X0221540Y0243825D02*
X0132552Y0243825D01*
X0132552Y0244823D02*
X0221674Y0244823D01*
X0222087Y0245822D02*
X0132350Y0245822D01*
X0132082Y0246820D02*
X0222912Y0246820D01*
X0224564Y0247819D02*
X0131815Y0247819D01*
X0131248Y0248817D02*
X0228869Y0248817D01*
X0227870Y0247819D02*
X0227316Y0247819D01*
X0230340Y0248026D02*
X0225940Y0243626D01*
X0229958Y0241828D02*
X0237671Y0241828D01*
X0237288Y0242826D02*
X0230340Y0242826D01*
X0230340Y0243825D02*
X0237288Y0243825D01*
X0237422Y0244823D02*
X0230207Y0244823D01*
X0230399Y0245822D02*
X0237835Y0245822D01*
X0238263Y0240829D02*
X0229366Y0240829D01*
X0228275Y0239830D02*
X0239354Y0239830D01*
X0245541Y0245822D02*
X0330602Y0245822D01*
X0332239Y0247563D02*
X0243974Y0247563D01*
X0243511Y0248026D01*
X0230340Y0248026D01*
X0214946Y0238832D02*
X0131477Y0238832D01*
X0130901Y0237833D02*
X0213948Y0237833D01*
X0212949Y0236835D02*
X0130294Y0236835D01*
X0129295Y0235836D02*
X0211951Y0235836D01*
X0210952Y0234838D02*
X0128273Y0234838D01*
X0126544Y0233839D02*
X0209954Y0233839D01*
X0208955Y0232841D02*
X0202088Y0232841D01*
X0203961Y0231842D02*
X0208592Y0231842D01*
X0208592Y0230844D02*
X0204943Y0230844D01*
X0205356Y0229845D02*
X0208592Y0229845D01*
X0208929Y0228847D02*
X0205661Y0228847D01*
X0205661Y0227848D02*
X0209928Y0227848D01*
X0210926Y0226850D02*
X0205517Y0226850D01*
X0205103Y0225851D02*
X0211925Y0225851D01*
X0212923Y0224853D02*
X0204349Y0224853D01*
X0198474Y0219860D02*
X0160309Y0219860D01*
X0161174Y0218862D02*
X0197281Y0218862D01*
X0196581Y0217863D02*
X0161174Y0217863D01*
X0161174Y0216865D02*
X0196168Y0216865D01*
X0196061Y0215866D02*
X0161028Y0215866D01*
X0160029Y0214868D02*
X0196061Y0214868D01*
X0196405Y0213869D02*
X0156174Y0213869D01*
X0156174Y0212871D02*
X0196856Y0212871D01*
X0197855Y0211872D02*
X0156174Y0211872D01*
X0153974Y0216865D02*
X0107361Y0216865D01*
X0107361Y0217863D02*
X0153974Y0217863D01*
X0153974Y0218862D02*
X0107361Y0218862D01*
X0107361Y0219860D02*
X0150127Y0219860D01*
X0149128Y0220859D02*
X0107361Y0220859D01*
X0107361Y0221857D02*
X0148974Y0221857D01*
X0148974Y0222856D02*
X0107361Y0222856D01*
X0107361Y0223854D02*
X0148974Y0223854D01*
X0149832Y0224853D02*
X0107361Y0224853D01*
X0107361Y0225851D02*
X0150830Y0225851D01*
X0153974Y0226850D02*
X0107361Y0226850D01*
X0107361Y0227848D02*
X0153974Y0227848D01*
X0153974Y0228847D02*
X0107361Y0228847D01*
X0107361Y0229845D02*
X0154824Y0229845D01*
X0156174Y0221857D02*
X0215919Y0221857D01*
X0216917Y0220859D02*
X0159310Y0220859D01*
X0150845Y0215866D02*
X0107361Y0215866D01*
X0107361Y0214868D02*
X0149847Y0214868D01*
X0148974Y0213869D02*
X0107361Y0213869D01*
X0107361Y0212871D02*
X0148974Y0212871D01*
X0148974Y0211872D02*
X0107361Y0211872D01*
X0107361Y0210874D02*
X0149113Y0210874D01*
X0107361Y0207878D02*
X0360267Y0207878D01*
X0360267Y0206880D02*
X0107361Y0206880D01*
X0107361Y0205881D02*
X0360267Y0205881D01*
X0360267Y0204883D02*
X0107361Y0204883D01*
X0107361Y0203884D02*
X0360267Y0203884D01*
X0360267Y0202886D02*
X0107361Y0202886D01*
X0107361Y0201887D02*
X0360267Y0201887D01*
X0360267Y0200889D02*
X0107361Y0200889D01*
X0107361Y0199890D02*
X0360267Y0199890D01*
X0360267Y0198892D02*
X0107361Y0198892D01*
X0107361Y0197893D02*
X0360267Y0197893D01*
X0360267Y0196895D02*
X0107361Y0196895D01*
X0107361Y0195896D02*
X0360267Y0195896D01*
X0360267Y0194897D02*
X0107361Y0194897D01*
X0107361Y0193899D02*
X0360267Y0193899D01*
X0360267Y0192900D02*
X0107361Y0192900D01*
X0107361Y0191902D02*
X0360267Y0191902D01*
X0360267Y0190903D02*
X0220572Y0190903D01*
X0219710Y0191261D02*
X0221474Y0190530D01*
X0222824Y0189180D01*
X0223555Y0187415D01*
X0223555Y0185506D01*
X0223092Y0184387D01*
X0224851Y0182628D01*
X0225788Y0181690D01*
X0225788Y0168633D01*
X0226577Y0167844D01*
X0226577Y0165865D01*
X0225178Y0164465D01*
X0223199Y0164465D01*
X0221799Y0165865D01*
X0221799Y0167844D01*
X0222588Y0168633D01*
X0222588Y0180365D01*
X0220829Y0182124D01*
X0219710Y0181661D01*
X0217800Y0181661D01*
X0216036Y0182391D01*
X0214686Y0183742D01*
X0213955Y0185506D01*
X0213955Y0187415D01*
X0214686Y0189180D01*
X0216036Y0190530D01*
X0217800Y0191261D01*
X0219710Y0191261D01*
X0222099Y0189905D02*
X0292004Y0189905D01*
X0292207Y0190108D02*
X0291269Y0189171D01*
X0291244Y0189145D01*
X0290758Y0189145D01*
X0289358Y0187745D01*
X0289358Y0187260D01*
X0289301Y0187202D01*
X0289301Y0160286D01*
X0290238Y0159349D01*
X0292207Y0157380D01*
X0307312Y0157380D01*
X0308249Y0158318D01*
X0320060Y0170129D01*
X0320060Y0187202D01*
X0319123Y0188139D01*
X0318880Y0188382D01*
X0318880Y0189497D01*
X0317481Y0190897D01*
X0315502Y0190897D01*
X0314713Y0190108D01*
X0292207Y0190108D01*
X0292869Y0188508D02*
X0290901Y0186539D01*
X0290901Y0160949D01*
X0292869Y0158980D01*
X0306649Y0158980D01*
X0318460Y0170791D01*
X0318460Y0186539D01*
X0316491Y0188508D01*
X0292869Y0188508D01*
X0292269Y0187908D02*
X0317091Y0187908D01*
X0316491Y0188508D02*
X0316491Y0180634D01*
X0296806Y0160949D01*
X0291900Y0159950D02*
X0307618Y0159950D01*
X0308617Y0160948D02*
X0290902Y0160948D01*
X0290901Y0161947D02*
X0309615Y0161947D01*
X0310614Y0162945D02*
X0290901Y0162945D01*
X0290901Y0163944D02*
X0311612Y0163944D01*
X0312611Y0164942D02*
X0290901Y0164942D01*
X0290901Y0165941D02*
X0313609Y0165941D01*
X0314608Y0166939D02*
X0290901Y0166939D01*
X0290901Y0167938D02*
X0315606Y0167938D01*
X0316605Y0168936D02*
X0290901Y0168936D01*
X0290901Y0169935D02*
X0317603Y0169935D01*
X0318460Y0170933D02*
X0290901Y0170933D01*
X0290901Y0171932D02*
X0318460Y0171932D01*
X0318460Y0172930D02*
X0290901Y0172930D01*
X0290901Y0173929D02*
X0318460Y0173929D01*
X0318460Y0174927D02*
X0290901Y0174927D01*
X0290901Y0175926D02*
X0318460Y0175926D01*
X0318460Y0176924D02*
X0290901Y0176924D01*
X0290901Y0177923D02*
X0318460Y0177923D01*
X0318460Y0178921D02*
X0290901Y0178921D01*
X0290901Y0179920D02*
X0318460Y0179920D01*
X0318460Y0180918D02*
X0290901Y0180918D01*
X0290901Y0181917D02*
X0318460Y0181917D01*
X0318460Y0182915D02*
X0290901Y0182915D01*
X0290901Y0183914D02*
X0318460Y0183914D01*
X0318460Y0184912D02*
X0290901Y0184912D01*
X0290901Y0185911D02*
X0318460Y0185911D01*
X0318090Y0186909D02*
X0291271Y0186909D01*
X0289301Y0186909D02*
X0223555Y0186909D01*
X0223555Y0185911D02*
X0289301Y0185911D01*
X0289301Y0184912D02*
X0223309Y0184912D01*
X0223565Y0183914D02*
X0289301Y0183914D01*
X0289301Y0182915D02*
X0224563Y0182915D01*
X0225562Y0181917D02*
X0289301Y0181917D01*
X0289301Y0180918D02*
X0225788Y0180918D01*
X0225788Y0179920D02*
X0289301Y0179920D01*
X0289301Y0178921D02*
X0225788Y0178921D01*
X0225788Y0177923D02*
X0289301Y0177923D01*
X0289301Y0176924D02*
X0225788Y0176924D01*
X0225788Y0175926D02*
X0289301Y0175926D01*
X0289301Y0174927D02*
X0225788Y0174927D01*
X0225788Y0173929D02*
X0289301Y0173929D01*
X0289301Y0172930D02*
X0225788Y0172930D01*
X0225788Y0171932D02*
X0289301Y0171932D01*
X0289301Y0170933D02*
X0225788Y0170933D01*
X0225788Y0169935D02*
X0289301Y0169935D01*
X0289301Y0168936D02*
X0225788Y0168936D01*
X0226483Y0167938D02*
X0289301Y0167938D01*
X0289301Y0166939D02*
X0226577Y0166939D01*
X0226577Y0165941D02*
X0289301Y0165941D01*
X0289301Y0164942D02*
X0225655Y0164942D01*
X0224188Y0166854D02*
X0224188Y0181028D01*
X0218755Y0186461D01*
X0216938Y0190903D02*
X0211487Y0190903D01*
X0211481Y0190908D02*
X0210751Y0191280D01*
X0209973Y0191533D01*
X0209255Y0191646D01*
X0209255Y0186961D01*
X0208255Y0186961D01*
X0208255Y0191646D01*
X0207538Y0191533D01*
X0206759Y0191280D01*
X0206030Y0190908D01*
X0205368Y0190427D01*
X0204789Y0189848D01*
X0204308Y0189186D01*
X0203936Y0188457D01*
X0203683Y0187678D01*
X0203570Y0186961D01*
X0208255Y0186961D01*
X0208255Y0185961D01*
X0203570Y0185961D01*
X0203683Y0185243D01*
X0203936Y0184465D01*
X0204308Y0183735D01*
X0204789Y0183073D01*
X0205368Y0182494D01*
X0206030Y0182013D01*
X0206759Y0181642D01*
X0207538Y0181389D01*
X0208255Y0181275D01*
X0208255Y0185961D01*
X0209255Y0185961D01*
X0209255Y0186961D01*
X0213941Y0186961D01*
X0213827Y0187678D01*
X0213574Y0188457D01*
X0213203Y0189186D01*
X0212722Y0189848D01*
X0212143Y0190427D01*
X0211481Y0190908D01*
X0212665Y0189905D02*
X0215411Y0189905D01*
X0214573Y0188906D02*
X0213345Y0188906D01*
X0213753Y0187908D02*
X0214159Y0187908D01*
X0213955Y0186909D02*
X0209255Y0186909D01*
X0209255Y0185961D02*
X0213941Y0185961D01*
X0213827Y0185243D01*
X0213574Y0184465D01*
X0213203Y0183735D01*
X0212722Y0183073D01*
X0212143Y0182494D01*
X0211481Y0182013D01*
X0210751Y0181642D01*
X0209973Y0181389D01*
X0209255Y0181275D01*
X0209255Y0185961D01*
X0209255Y0185911D02*
X0208255Y0185911D01*
X0208255Y0186909D02*
X0203555Y0186909D01*
X0203555Y0187415D02*
X0202824Y0189180D01*
X0201474Y0190530D01*
X0199710Y0191261D01*
X0197800Y0191261D01*
X0196036Y0190530D01*
X0194686Y0189180D01*
X0193955Y0187415D01*
X0193955Y0185506D01*
X0194686Y0183742D01*
X0196036Y0182391D01*
X0197800Y0181661D01*
X0199710Y0181661D01*
X0201474Y0182391D01*
X0202824Y0183742D01*
X0203555Y0185506D01*
X0203555Y0187415D01*
X0203351Y0187908D02*
X0203758Y0187908D01*
X0204165Y0188906D02*
X0202938Y0188906D01*
X0202099Y0189905D02*
X0204846Y0189905D01*
X0206023Y0190903D02*
X0200572Y0190903D01*
X0196938Y0190903D02*
X0107361Y0190903D01*
X0107361Y0189905D02*
X0195411Y0189905D01*
X0194573Y0188906D02*
X0107361Y0188906D01*
X0107361Y0187908D02*
X0194159Y0187908D01*
X0193955Y0186909D02*
X0107361Y0186909D01*
X0107361Y0185911D02*
X0193955Y0185911D01*
X0194201Y0184912D02*
X0107361Y0184912D01*
X0107361Y0183914D02*
X0194615Y0183914D01*
X0195512Y0182915D02*
X0107361Y0182915D01*
X0107361Y0181917D02*
X0197182Y0181917D01*
X0200329Y0181917D02*
X0206219Y0181917D01*
X0204947Y0182915D02*
X0201998Y0182915D01*
X0202896Y0183914D02*
X0204217Y0183914D01*
X0203791Y0184912D02*
X0203309Y0184912D01*
X0203555Y0185911D02*
X0203577Y0185911D01*
X0208255Y0184912D02*
X0209255Y0184912D01*
X0209255Y0183914D02*
X0208255Y0183914D01*
X0208255Y0182915D02*
X0209255Y0182915D01*
X0209255Y0181917D02*
X0208255Y0181917D01*
X0211291Y0181917D02*
X0217182Y0181917D01*
X0215512Y0182915D02*
X0212564Y0182915D01*
X0213294Y0183914D02*
X0214615Y0183914D01*
X0214201Y0184912D02*
X0213720Y0184912D01*
X0213933Y0185911D02*
X0213955Y0185911D01*
X0209255Y0187908D02*
X0208255Y0187908D01*
X0208255Y0188906D02*
X0209255Y0188906D01*
X0209255Y0189905D02*
X0208255Y0189905D01*
X0208255Y0190903D02*
X0209255Y0190903D01*
X0220328Y0181917D02*
X0221036Y0181917D01*
X0222035Y0180918D02*
X0107361Y0180918D01*
X0107361Y0179920D02*
X0222588Y0179920D01*
X0222588Y0178921D02*
X0107361Y0178921D01*
X0107361Y0177923D02*
X0222588Y0177923D01*
X0222588Y0176924D02*
X0107361Y0176924D01*
X0107361Y0175926D02*
X0222588Y0175926D01*
X0222588Y0174927D02*
X0107361Y0174927D01*
X0107361Y0173929D02*
X0222588Y0173929D01*
X0222588Y0172930D02*
X0107361Y0172930D01*
X0107361Y0171932D02*
X0222588Y0171932D01*
X0222588Y0170933D02*
X0107361Y0170933D01*
X0107361Y0169935D02*
X0222588Y0169935D01*
X0222588Y0168936D02*
X0165542Y0168936D01*
X0165301Y0169036D02*
X0163391Y0169036D01*
X0161627Y0168305D01*
X0160277Y0166955D01*
X0159546Y0165191D01*
X0159546Y0163281D01*
X0160277Y0161517D01*
X0161627Y0160167D01*
X0163391Y0159436D01*
X0165301Y0159436D01*
X0167065Y0160167D01*
X0168415Y0161517D01*
X0169146Y0163281D01*
X0169146Y0165191D01*
X0168415Y0166955D01*
X0167065Y0168305D01*
X0165301Y0169036D01*
X0163150Y0168936D02*
X0139951Y0168936D01*
X0139710Y0169036D02*
X0137800Y0169036D01*
X0136036Y0168305D01*
X0134686Y0166955D01*
X0133955Y0165191D01*
X0133955Y0163281D01*
X0134686Y0161517D01*
X0136036Y0160167D01*
X0137800Y0159436D01*
X0139710Y0159436D01*
X0141474Y0160167D01*
X0142824Y0161517D01*
X0143555Y0163281D01*
X0143555Y0165191D01*
X0142824Y0166955D01*
X0141474Y0168305D01*
X0139710Y0169036D01*
X0137559Y0168936D02*
X0107361Y0168936D01*
X0107361Y0167938D02*
X0135668Y0167938D01*
X0134679Y0166939D02*
X0107361Y0166939D01*
X0107361Y0165941D02*
X0134266Y0165941D01*
X0133955Y0164942D02*
X0107361Y0164942D01*
X0107361Y0163944D02*
X0133955Y0163944D01*
X0134094Y0162945D02*
X0107361Y0162945D01*
X0107361Y0161947D02*
X0134508Y0161947D01*
X0135255Y0160948D02*
X0107361Y0160948D01*
X0107361Y0159950D02*
X0136561Y0159950D01*
X0140949Y0159950D02*
X0162152Y0159950D01*
X0160846Y0160948D02*
X0142255Y0160948D01*
X0143002Y0161947D02*
X0160099Y0161947D01*
X0159685Y0162945D02*
X0143416Y0162945D01*
X0143555Y0163944D02*
X0159546Y0163944D01*
X0159546Y0164942D02*
X0143555Y0164942D01*
X0143245Y0165941D02*
X0159856Y0165941D01*
X0160270Y0166939D02*
X0142831Y0166939D01*
X0141842Y0167938D02*
X0161259Y0167938D01*
X0167432Y0167938D02*
X0221893Y0167938D01*
X0221799Y0166939D02*
X0168422Y0166939D01*
X0168835Y0165941D02*
X0221799Y0165941D01*
X0222722Y0164942D02*
X0169146Y0164942D01*
X0169146Y0163944D02*
X0289301Y0163944D01*
X0289301Y0162945D02*
X0169006Y0162945D01*
X0168593Y0161947D02*
X0289301Y0161947D01*
X0289301Y0160948D02*
X0167846Y0160948D01*
X0166540Y0159950D02*
X0289637Y0159950D01*
X0290636Y0158951D02*
X0107361Y0158951D01*
X0107361Y0157953D02*
X0291634Y0157953D01*
X0293795Y0148769D02*
X0184412Y0148769D01*
X0183623Y0149558D01*
X0181644Y0149558D01*
X0180244Y0148159D01*
X0180244Y0146180D01*
X0181644Y0144780D01*
X0183623Y0144780D01*
X0184412Y0145569D01*
X0292449Y0145569D01*
X0292449Y0144474D01*
X0293848Y0143075D01*
X0295827Y0143075D01*
X0296386Y0143633D01*
X0296386Y0142243D01*
X0297785Y0140843D01*
X0299764Y0140843D01*
X0301164Y0142243D01*
X0301164Y0143359D01*
X0321091Y0163286D01*
X0354083Y0163286D01*
X0354872Y0162497D01*
X0356851Y0162497D01*
X0358250Y0163896D01*
X0358250Y0165875D01*
X0356851Y0167275D01*
X0354872Y0167275D01*
X0354083Y0166486D01*
X0319766Y0166486D01*
X0318828Y0165549D01*
X0298901Y0145621D01*
X0297785Y0145621D01*
X0297227Y0145063D01*
X0297227Y0146453D01*
X0295827Y0147853D01*
X0294712Y0147853D01*
X0293795Y0148769D01*
X0294597Y0147967D02*
X0301247Y0147967D01*
X0300249Y0146969D02*
X0296711Y0146969D01*
X0297227Y0145970D02*
X0299250Y0145970D01*
X0298775Y0143232D02*
X0320428Y0164886D01*
X0355861Y0164886D01*
X0358250Y0164942D02*
X0360267Y0164942D01*
X0360267Y0163944D02*
X0358250Y0163944D01*
X0357299Y0162945D02*
X0360267Y0162945D01*
X0360267Y0161947D02*
X0319752Y0161947D01*
X0320750Y0162945D02*
X0354424Y0162945D01*
X0354536Y0166939D02*
X0316870Y0166939D01*
X0315872Y0165941D02*
X0319221Y0165941D01*
X0318222Y0164942D02*
X0314873Y0164942D01*
X0313875Y0163944D02*
X0317223Y0163944D01*
X0316225Y0162945D02*
X0312876Y0162945D01*
X0311878Y0161947D02*
X0315226Y0161947D01*
X0314228Y0160948D02*
X0310879Y0160948D01*
X0309881Y0159950D02*
X0313229Y0159950D01*
X0312231Y0158951D02*
X0308882Y0158951D01*
X0307884Y0157953D02*
X0311232Y0157953D01*
X0310234Y0156954D02*
X0107361Y0156954D01*
X0107361Y0155956D02*
X0309235Y0155956D01*
X0308237Y0154957D02*
X0107361Y0154957D01*
X0107361Y0153959D02*
X0307238Y0153959D01*
X0306240Y0152960D02*
X0107361Y0152960D01*
X0107361Y0151962D02*
X0305241Y0151962D01*
X0304243Y0150963D02*
X0107361Y0150963D01*
X0107361Y0149964D02*
X0303244Y0149964D01*
X0302246Y0148966D02*
X0184215Y0148966D01*
X0182633Y0147169D02*
X0293132Y0147169D01*
X0294838Y0145464D01*
X0292950Y0143973D02*
X0107361Y0143973D01*
X0107361Y0142975D02*
X0296386Y0142975D01*
X0296652Y0141976D02*
X0107361Y0141976D01*
X0107361Y0140978D02*
X0249835Y0140978D01*
X0249142Y0140285D02*
X0249142Y0139169D01*
X0242994Y0133021D01*
X0211971Y0133021D01*
X0211182Y0133810D01*
X0209203Y0133810D01*
X0207803Y0132411D01*
X0207803Y0130432D01*
X0209203Y0129032D01*
X0211182Y0129032D01*
X0211971Y0129821D01*
X0217025Y0129821D01*
X0215677Y0128474D01*
X0215677Y0126495D01*
X0217077Y0125095D01*
X0219056Y0125095D01*
X0220455Y0126495D01*
X0220455Y0127610D01*
X0220697Y0127853D01*
X0244320Y0127853D01*
X0244688Y0128221D01*
X0246098Y0128221D01*
X0254783Y0136906D01*
X0256457Y0136906D01*
X0257857Y0138306D01*
X0257857Y0140285D01*
X0256457Y0141684D01*
X0254478Y0141684D01*
X0253499Y0140705D01*
X0252520Y0141684D01*
X0250541Y0141684D01*
X0249142Y0140285D01*
X0249142Y0139979D02*
X0107361Y0139979D01*
X0107361Y0138981D02*
X0248954Y0138981D01*
X0247955Y0137982D02*
X0107361Y0137982D01*
X0107361Y0136984D02*
X0246957Y0136984D01*
X0245958Y0135985D02*
X0107361Y0135985D01*
X0107361Y0134987D02*
X0244960Y0134987D01*
X0243961Y0133988D02*
X0107361Y0133988D01*
X0107361Y0132990D02*
X0208382Y0132990D01*
X0207803Y0131991D02*
X0107361Y0131991D01*
X0107361Y0130993D02*
X0207803Y0130993D01*
X0208241Y0129994D02*
X0107361Y0129994D01*
X0107361Y0128996D02*
X0216199Y0128996D01*
X0215677Y0127997D02*
X0107361Y0127997D01*
X0107361Y0126999D02*
X0215677Y0126999D01*
X0216172Y0126000D02*
X0107361Y0126000D01*
X0107361Y0125002D02*
X0251575Y0125002D01*
X0251110Y0124003D02*
X0107361Y0124003D01*
X0107361Y0123005D02*
X0251110Y0123005D01*
X0251662Y0122006D02*
X0107361Y0122006D01*
X0107361Y0121008D02*
X0318817Y0121008D01*
X0318025Y0120009D02*
X0107361Y0120009D01*
X0107361Y0119011D02*
X0317611Y0119011D01*
X0317439Y0118012D02*
X0107361Y0118012D01*
X0107361Y0117014D02*
X0317439Y0117014D01*
X0317718Y0116015D02*
X0107361Y0116015D01*
X0107361Y0115017D02*
X0318131Y0115017D01*
X0319075Y0114018D02*
X0278218Y0114018D01*
X0276025Y0114018D02*
X0252627Y0114018D01*
X0252520Y0114125D02*
X0250541Y0114125D01*
X0249142Y0112726D01*
X0249142Y0112317D01*
X0248383Y0111558D01*
X0248383Y0111409D01*
X0234569Y0097596D01*
X0225305Y0097596D01*
X0225049Y0098215D01*
X0223699Y0099565D01*
X0221934Y0100296D01*
X0220025Y0100296D01*
X0218261Y0099565D01*
X0216910Y0098215D01*
X0216180Y0096451D01*
X0216180Y0094541D01*
X0216910Y0092777D01*
X0218261Y0091427D01*
X0220025Y0090696D01*
X0221934Y0090696D01*
X0223699Y0091427D01*
X0225049Y0092777D01*
X0225305Y0093396D01*
X0236309Y0093396D01*
X0237539Y0094626D01*
X0252260Y0109347D01*
X0252520Y0109347D01*
X0253920Y0110747D01*
X0253920Y0112726D01*
X0252520Y0114125D01*
X0253626Y0113020D02*
X0256349Y0113020D01*
X0256872Y0113543D02*
X0255473Y0112143D01*
X0255473Y0110188D01*
X0254478Y0110188D01*
X0253079Y0108789D01*
X0253079Y0106810D01*
X0253868Y0106021D01*
X0253868Y0099262D01*
X0254805Y0098325D01*
X0268585Y0084546D01*
X0274623Y0084546D01*
X0274321Y0084243D01*
X0262678Y0084243D01*
X0261989Y0084932D01*
X0260010Y0084932D01*
X0259321Y0084243D01*
X0247678Y0084243D01*
X0246989Y0084932D01*
X0245010Y0084932D01*
X0243610Y0083533D01*
X0243610Y0082558D01*
X0227244Y0066192D01*
X0215394Y0066192D01*
X0214398Y0065196D01*
X0207677Y0058476D01*
X0206681Y0057480D01*
X0206681Y0056171D01*
X0205992Y0055482D01*
X0205992Y0053503D01*
X0207392Y0052103D01*
X0209371Y0052103D01*
X0210770Y0053503D01*
X0210770Y0055482D01*
X0210131Y0056121D01*
X0216802Y0062792D01*
X0228652Y0062792D01*
X0246014Y0080154D01*
X0246989Y0080154D01*
X0247678Y0080843D01*
X0259321Y0080843D01*
X0260010Y0080154D01*
X0261989Y0080154D01*
X0262678Y0080843D01*
X0274321Y0080843D01*
X0275010Y0080154D01*
X0276989Y0080154D01*
X0277678Y0080843D01*
X0289321Y0080843D01*
X0290010Y0080154D01*
X0291989Y0080154D01*
X0293388Y0081554D01*
X0293388Y0083533D01*
X0292375Y0084546D01*
X0316681Y0084546D01*
X0317470Y0083757D01*
X0319449Y0083757D01*
X0320849Y0085156D01*
X0320849Y0087135D01*
X0319449Y0088535D01*
X0317470Y0088535D01*
X0316681Y0087746D01*
X0303753Y0087746D01*
X0305101Y0089093D01*
X0305101Y0091072D01*
X0303753Y0092420D01*
X0308807Y0092420D01*
X0309596Y0091631D01*
X0311575Y0091631D01*
X0312975Y0093030D01*
X0312975Y0095009D01*
X0311575Y0096409D01*
X0309596Y0096409D01*
X0308807Y0095620D01*
X0275658Y0095620D01*
X0263750Y0107527D01*
X0263750Y0108643D01*
X0262351Y0110043D01*
X0260372Y0110043D01*
X0259461Y0109132D01*
X0259461Y0109375D01*
X0260250Y0110164D01*
X0260250Y0112143D01*
X0258851Y0113543D01*
X0256872Y0113543D01*
X0255473Y0112021D02*
X0253920Y0112021D01*
X0253920Y0111023D02*
X0255473Y0111023D01*
X0254314Y0110024D02*
X0253197Y0110024D01*
X0253316Y0109026D02*
X0251939Y0109026D01*
X0250940Y0108027D02*
X0253079Y0108027D01*
X0253079Y0107028D02*
X0249942Y0107028D01*
X0248943Y0106030D02*
X0253858Y0106030D01*
X0253868Y0105031D02*
X0247945Y0105031D01*
X0246946Y0104033D02*
X0253868Y0104033D01*
X0253868Y0103034D02*
X0245947Y0103034D01*
X0244949Y0102036D02*
X0253868Y0102036D01*
X0253868Y0101037D02*
X0243950Y0101037D01*
X0242952Y0100039D02*
X0253868Y0100039D01*
X0254090Y0099040D02*
X0241953Y0099040D01*
X0240955Y0098042D02*
X0255088Y0098042D01*
X0256087Y0097043D02*
X0239956Y0097043D01*
X0238958Y0096045D02*
X0257085Y0096045D01*
X0258084Y0095046D02*
X0237959Y0095046D01*
X0236961Y0094048D02*
X0259082Y0094048D01*
X0260081Y0093049D02*
X0225162Y0093049D01*
X0224323Y0092051D02*
X0261079Y0092051D01*
X0262078Y0091052D02*
X0222794Y0091052D01*
X0219165Y0091052D02*
X0213710Y0091052D01*
X0213705Y0091049D02*
X0214367Y0091530D01*
X0214946Y0092108D01*
X0215427Y0092771D01*
X0215799Y0093500D01*
X0216052Y0094278D01*
X0216165Y0094996D01*
X0211480Y0094996D01*
X0211480Y0095996D01*
X0216165Y0095996D01*
X0216052Y0096714D01*
X0215799Y0097492D01*
X0215427Y0098221D01*
X0214946Y0098884D01*
X0214367Y0099462D01*
X0213705Y0099943D01*
X0212976Y0100315D01*
X0212197Y0100568D01*
X0211480Y0100682D01*
X0211480Y0095996D01*
X0210480Y0095996D01*
X0210480Y0100682D01*
X0209762Y0100568D01*
X0208983Y0100315D01*
X0208254Y0099943D01*
X0207592Y0099462D01*
X0207013Y0098884D01*
X0206532Y0098221D01*
X0206161Y0097492D01*
X0205908Y0096714D01*
X0205794Y0095996D01*
X0210480Y0095996D01*
X0210480Y0094996D01*
X0211480Y0094996D01*
X0211480Y0090310D01*
X0212197Y0090424D01*
X0212976Y0090677D01*
X0213705Y0091049D01*
X0214888Y0092051D02*
X0217637Y0092051D01*
X0216798Y0093049D02*
X0215569Y0093049D01*
X0215977Y0094048D02*
X0216384Y0094048D01*
X0216180Y0095046D02*
X0211480Y0095046D01*
X0211480Y0094048D02*
X0210480Y0094048D01*
X0210480Y0094996D02*
X0210480Y0090310D01*
X0209762Y0090424D01*
X0208983Y0090677D01*
X0208254Y0091049D01*
X0207592Y0091530D01*
X0207013Y0092108D01*
X0206532Y0092771D01*
X0206161Y0093500D01*
X0205908Y0094278D01*
X0205794Y0094996D01*
X0210480Y0094996D01*
X0210480Y0095046D02*
X0107361Y0095046D01*
X0107361Y0094048D02*
X0205983Y0094048D01*
X0206390Y0093049D02*
X0107361Y0093049D01*
X0107361Y0092051D02*
X0207071Y0092051D01*
X0208249Y0091052D02*
X0107361Y0091052D01*
X0107361Y0090054D02*
X0113729Y0090054D01*
X0113891Y0090215D02*
X0112540Y0088865D01*
X0111810Y0087100D01*
X0111810Y0085191D01*
X0112540Y0083427D01*
X0113891Y0082076D01*
X0115655Y0081346D01*
X0117564Y0081346D01*
X0119328Y0082076D01*
X0120679Y0083427D01*
X0121410Y0085191D01*
X0121410Y0087100D01*
X0120679Y0088865D01*
X0119328Y0090215D01*
X0117564Y0090946D01*
X0115655Y0090946D01*
X0113891Y0090215D01*
X0112731Y0089055D02*
X0107361Y0089055D01*
X0107361Y0088057D02*
X0112206Y0088057D01*
X0111810Y0087058D02*
X0107361Y0087058D01*
X0107361Y0086060D02*
X0111810Y0086060D01*
X0111863Y0085061D02*
X0107361Y0085061D01*
X0107361Y0084063D02*
X0112277Y0084063D01*
X0112903Y0083064D02*
X0107361Y0083064D01*
X0107361Y0082066D02*
X0113916Y0082066D01*
X0119303Y0082066D02*
X0123916Y0082066D01*
X0123891Y0082076D02*
X0125655Y0081346D01*
X0127564Y0081346D01*
X0129328Y0082076D01*
X0130679Y0083427D01*
X0131410Y0085191D01*
X0131410Y0087100D01*
X0130679Y0088865D01*
X0129328Y0090215D01*
X0127564Y0090946D01*
X0125655Y0090946D01*
X0123891Y0090215D01*
X0122540Y0088865D01*
X0121810Y0087100D01*
X0121810Y0085191D01*
X0122540Y0083427D01*
X0123891Y0082076D01*
X0122903Y0083064D02*
X0120316Y0083064D01*
X0120942Y0084063D02*
X0122277Y0084063D01*
X0121863Y0085061D02*
X0121356Y0085061D01*
X0121410Y0086060D02*
X0121810Y0086060D01*
X0121810Y0087058D02*
X0121410Y0087058D01*
X0121013Y0088057D02*
X0122206Y0088057D01*
X0122731Y0089055D02*
X0120488Y0089055D01*
X0119490Y0090054D02*
X0123729Y0090054D01*
X0129490Y0090054D02*
X0263076Y0090054D01*
X0264075Y0089055D02*
X0130488Y0089055D01*
X0131013Y0088057D02*
X0265073Y0088057D01*
X0266072Y0087058D02*
X0131410Y0087058D01*
X0131410Y0086060D02*
X0267070Y0086060D01*
X0268069Y0085061D02*
X0131356Y0085061D01*
X0130942Y0084063D02*
X0244140Y0084063D01*
X0243610Y0083064D02*
X0130316Y0083064D01*
X0129303Y0082066D02*
X0243118Y0082066D01*
X0242119Y0081067D02*
X0107361Y0081067D01*
X0107361Y0080069D02*
X0230264Y0080069D01*
X0230856Y0080661D02*
X0229457Y0079261D01*
X0229457Y0077282D01*
X0230856Y0075883D01*
X0232835Y0075883D01*
X0234235Y0077282D01*
X0234235Y0079261D01*
X0232835Y0080661D01*
X0230856Y0080661D01*
X0229457Y0079070D02*
X0107361Y0079070D01*
X0107361Y0078072D02*
X0229457Y0078072D01*
X0229666Y0077073D02*
X0107361Y0077073D01*
X0107361Y0076075D02*
X0230664Y0076075D01*
X0233027Y0076075D02*
X0237126Y0076075D01*
X0236128Y0075076D02*
X0107361Y0075076D01*
X0107361Y0074078D02*
X0235129Y0074078D01*
X0234131Y0073079D02*
X0206602Y0073079D01*
X0207235Y0072446D02*
X0205835Y0073846D01*
X0203856Y0073846D01*
X0202457Y0072446D01*
X0202457Y0070467D01*
X0203856Y0069068D01*
X0205835Y0069068D01*
X0207235Y0070467D01*
X0207235Y0072446D01*
X0207235Y0072081D02*
X0233132Y0072081D01*
X0232134Y0071082D02*
X0207235Y0071082D01*
X0206851Y0070084D02*
X0231135Y0070084D01*
X0230137Y0069085D02*
X0205853Y0069085D01*
X0203839Y0069085D02*
X0107361Y0069085D01*
X0107361Y0068087D02*
X0229138Y0068087D01*
X0228140Y0067088D02*
X0128133Y0067088D01*
X0127564Y0067324D02*
X0129328Y0066593D01*
X0130679Y0065243D01*
X0131410Y0063478D01*
X0131410Y0061569D01*
X0130679Y0059805D01*
X0129328Y0058454D01*
X0127564Y0057724D01*
X0125655Y0057724D01*
X0123891Y0058454D01*
X0122540Y0059805D01*
X0121810Y0061569D01*
X0121810Y0063478D01*
X0122540Y0065243D01*
X0123891Y0066593D01*
X0125655Y0067324D01*
X0127564Y0067324D01*
X0125086Y0067088D02*
X0118133Y0067088D01*
X0117564Y0067324D02*
X0119328Y0066593D01*
X0120679Y0065243D01*
X0121410Y0063478D01*
X0121410Y0061569D01*
X0120679Y0059805D01*
X0119328Y0058454D01*
X0117564Y0057724D01*
X0115655Y0057724D01*
X0113891Y0058454D01*
X0112540Y0059805D01*
X0111810Y0061569D01*
X0111810Y0063478D01*
X0112540Y0065243D01*
X0113891Y0066593D01*
X0115655Y0067324D01*
X0117564Y0067324D01*
X0115086Y0067088D02*
X0107361Y0067088D01*
X0107361Y0066090D02*
X0113387Y0066090D01*
X0112477Y0065091D02*
X0107361Y0065091D01*
X0107361Y0064093D02*
X0112064Y0064093D01*
X0111810Y0063094D02*
X0107361Y0063094D01*
X0107361Y0062095D02*
X0111810Y0062095D01*
X0112005Y0061097D02*
X0107361Y0061097D01*
X0107361Y0060098D02*
X0112419Y0060098D01*
X0113245Y0059100D02*
X0107361Y0059100D01*
X0107361Y0058101D02*
X0114743Y0058101D01*
X0118476Y0058101D02*
X0124743Y0058101D01*
X0123245Y0059100D02*
X0119974Y0059100D01*
X0120800Y0060098D02*
X0122419Y0060098D01*
X0122005Y0061097D02*
X0121214Y0061097D01*
X0121410Y0062095D02*
X0121810Y0062095D01*
X0121810Y0063094D02*
X0121410Y0063094D01*
X0121155Y0064093D02*
X0122064Y0064093D01*
X0122477Y0065091D02*
X0120742Y0065091D01*
X0119832Y0066090D02*
X0123387Y0066090D01*
X0129832Y0066090D02*
X0215291Y0066090D01*
X0214398Y0065196D02*
X0214398Y0065196D01*
X0214292Y0065091D02*
X0130742Y0065091D01*
X0131155Y0064093D02*
X0213294Y0064093D01*
X0212295Y0063094D02*
X0131410Y0063094D01*
X0131410Y0062095D02*
X0211297Y0062095D01*
X0210298Y0061097D02*
X0131214Y0061097D01*
X0130800Y0060098D02*
X0209300Y0060098D01*
X0208301Y0059100D02*
X0129974Y0059100D01*
X0128476Y0058101D02*
X0207303Y0058101D01*
X0207677Y0058476D02*
X0207677Y0058476D01*
X0206681Y0057103D02*
X0107361Y0057103D01*
X0107361Y0056104D02*
X0206615Y0056104D01*
X0205992Y0055106D02*
X0107361Y0055106D01*
X0107361Y0054107D02*
X0205992Y0054107D01*
X0206386Y0053109D02*
X0107361Y0053109D01*
X0107361Y0052110D02*
X0207384Y0052110D01*
X0209378Y0052110D02*
X0222870Y0052110D01*
X0222612Y0051923D02*
X0222033Y0051344D01*
X0221552Y0050682D01*
X0221180Y0049953D01*
X0220927Y0049174D01*
X0220814Y0048457D01*
X0225499Y0048457D01*
X0225499Y0053142D01*
X0224782Y0053029D01*
X0224003Y0052776D01*
X0223274Y0052404D01*
X0222612Y0051923D01*
X0221864Y0051112D02*
X0107361Y0051112D01*
X0107361Y0050113D02*
X0221262Y0050113D01*
X0220918Y0049115D02*
X0125772Y0049115D01*
X0125833Y0049098D02*
X0123050Y0049844D01*
X0120169Y0049844D01*
X0117386Y0049098D01*
X0114891Y0047658D01*
X0112853Y0045620D01*
X0111413Y0043125D01*
X0110667Y0040342D01*
X0110667Y0037461D01*
X0111413Y0034678D01*
X0112853Y0032183D01*
X0114891Y0030145D01*
X0117386Y0028705D01*
X0120169Y0027959D01*
X0123050Y0027959D01*
X0125833Y0028705D01*
X0128328Y0030145D01*
X0130366Y0032183D01*
X0131806Y0034678D01*
X0132552Y0037461D01*
X0132552Y0040342D01*
X0131806Y0043125D01*
X0130366Y0045620D01*
X0128328Y0047658D01*
X0125833Y0049098D01*
X0127534Y0048116D02*
X0225499Y0048116D01*
X0225499Y0048457D02*
X0225499Y0047457D01*
X0220814Y0047457D01*
X0220861Y0047157D01*
X0208524Y0047157D01*
X0207835Y0047846D01*
X0205856Y0047846D01*
X0204457Y0046446D01*
X0204457Y0044467D01*
X0205856Y0043068D01*
X0207835Y0043068D01*
X0208524Y0043757D01*
X0220865Y0043757D01*
X0222270Y0042353D01*
X0223265Y0041357D01*
X0253240Y0041357D01*
X0255042Y0043158D01*
X0255045Y0043157D01*
X0256954Y0043157D01*
X0258718Y0043887D01*
X0260069Y0045238D01*
X0260491Y0046257D01*
X0261508Y0046257D01*
X0261930Y0045238D01*
X0263280Y0043887D01*
X0265045Y0043157D01*
X0266954Y0043157D01*
X0268718Y0043887D01*
X0270069Y0045238D01*
X0270491Y0046257D01*
X0271508Y0046257D01*
X0271930Y0045238D01*
X0273280Y0043887D01*
X0275045Y0043157D01*
X0276954Y0043157D01*
X0278718Y0043887D01*
X0280069Y0045238D01*
X0280491Y0046257D01*
X0281508Y0046257D01*
X0281930Y0045238D01*
X0283280Y0043887D01*
X0285045Y0043157D01*
X0286954Y0043157D01*
X0288718Y0043887D01*
X0290069Y0045238D01*
X0290799Y0047002D01*
X0290799Y0048911D01*
X0290069Y0050676D01*
X0288718Y0052026D01*
X0286954Y0052757D01*
X0285045Y0052757D01*
X0283280Y0052026D01*
X0281930Y0050676D01*
X0281508Y0049657D01*
X0280491Y0049657D01*
X0280069Y0050676D01*
X0278718Y0052026D01*
X0276954Y0052757D01*
X0275045Y0052757D01*
X0273280Y0052026D01*
X0271930Y0050676D01*
X0271508Y0049657D01*
X0270491Y0049657D01*
X0270069Y0050676D01*
X0268718Y0052026D01*
X0266954Y0052757D01*
X0265045Y0052757D01*
X0263280Y0052026D01*
X0261930Y0050676D01*
X0261508Y0049657D01*
X0260491Y0049657D01*
X0260069Y0050676D01*
X0258718Y0052026D01*
X0256954Y0052757D01*
X0255045Y0052757D01*
X0253280Y0052026D01*
X0251930Y0050676D01*
X0251199Y0048911D01*
X0251199Y0047002D01*
X0251746Y0045683D01*
X0250819Y0044757D01*
X0249163Y0044757D01*
X0250499Y0046093D01*
X0250499Y0047457D01*
X0246499Y0047457D01*
X0246499Y0048457D01*
X0245499Y0048457D01*
X0245499Y0052457D01*
X0244135Y0052457D01*
X0241499Y0049821D01*
X0241499Y0048457D01*
X0245499Y0048457D01*
X0245499Y0047457D01*
X0241499Y0047457D01*
X0241499Y0046093D01*
X0242835Y0044757D01*
X0239163Y0044757D01*
X0240499Y0046093D01*
X0240499Y0047457D01*
X0236499Y0047457D01*
X0236499Y0048457D01*
X0235499Y0048457D01*
X0235499Y0052457D01*
X0234135Y0052457D01*
X0231499Y0049821D01*
X0231499Y0048457D01*
X0235499Y0048457D01*
X0235499Y0047457D01*
X0231499Y0047457D01*
X0231499Y0046093D01*
X0232835Y0044757D01*
X0230102Y0044757D01*
X0230447Y0045231D01*
X0230818Y0045961D01*
X0231071Y0046739D01*
X0231185Y0047457D01*
X0226499Y0047457D01*
X0226499Y0048457D01*
X0225499Y0048457D01*
X0225499Y0049115D02*
X0226499Y0049115D01*
X0226499Y0048457D02*
X0226499Y0053142D01*
X0227217Y0053029D01*
X0227995Y0052776D01*
X0228725Y0052404D01*
X0229387Y0051923D01*
X0229966Y0051344D01*
X0230447Y0050682D01*
X0230818Y0049953D01*
X0231071Y0049174D01*
X0231185Y0048457D01*
X0226499Y0048457D01*
X0226499Y0048116D02*
X0235499Y0048116D01*
X0235499Y0049115D02*
X0236499Y0049115D01*
X0236499Y0048457D02*
X0236499Y0052457D01*
X0237863Y0052457D01*
X0240499Y0049821D01*
X0240499Y0048457D01*
X0236499Y0048457D01*
X0236499Y0048116D02*
X0245499Y0048116D01*
X0245499Y0049115D02*
X0246499Y0049115D01*
X0246499Y0048457D02*
X0246499Y0052457D01*
X0247863Y0052457D01*
X0250499Y0049821D01*
X0250499Y0048457D01*
X0246499Y0048457D01*
X0246499Y0048116D02*
X0251199Y0048116D01*
X0251199Y0047118D02*
X0250499Y0047118D01*
X0250499Y0046119D02*
X0251565Y0046119D01*
X0251184Y0045121D02*
X0249527Y0045121D01*
X0250499Y0049115D02*
X0251284Y0049115D01*
X0251697Y0050113D02*
X0250207Y0050113D01*
X0249208Y0051112D02*
X0252366Y0051112D01*
X0253484Y0052110D02*
X0248210Y0052110D01*
X0246499Y0052110D02*
X0245499Y0052110D01*
X0245499Y0051112D02*
X0246499Y0051112D01*
X0246499Y0050113D02*
X0245499Y0050113D01*
X0243789Y0052110D02*
X0238210Y0052110D01*
X0239208Y0051112D02*
X0242791Y0051112D01*
X0241792Y0050113D02*
X0240207Y0050113D01*
X0240499Y0049115D02*
X0241499Y0049115D01*
X0241499Y0047118D02*
X0240499Y0047118D01*
X0240499Y0046119D02*
X0241499Y0046119D01*
X0242471Y0045121D02*
X0239527Y0045121D01*
X0236499Y0050113D02*
X0235499Y0050113D01*
X0235499Y0051112D02*
X0236499Y0051112D01*
X0236499Y0052110D02*
X0235499Y0052110D01*
X0233789Y0052110D02*
X0229129Y0052110D01*
X0230134Y0051112D02*
X0232791Y0051112D01*
X0231792Y0050113D02*
X0230737Y0050113D01*
X0231081Y0049115D02*
X0231499Y0049115D01*
X0231499Y0047118D02*
X0231131Y0047118D01*
X0230870Y0046119D02*
X0231499Y0046119D01*
X0232471Y0045121D02*
X0230366Y0045121D01*
X0226499Y0050113D02*
X0225499Y0050113D01*
X0225499Y0051112D02*
X0226499Y0051112D01*
X0226499Y0052110D02*
X0225499Y0052110D01*
X0225499Y0053109D02*
X0226499Y0053109D01*
X0226710Y0053109D02*
X0294092Y0053109D01*
X0294003Y0053138D02*
X0294782Y0052885D01*
X0295499Y0052771D01*
X0295499Y0057457D01*
X0290814Y0057457D01*
X0290927Y0056739D01*
X0291180Y0055961D01*
X0291552Y0055231D01*
X0292033Y0054569D01*
X0292612Y0053990D01*
X0293274Y0053509D01*
X0294003Y0053138D01*
X0295045Y0052757D02*
X0293280Y0052026D01*
X0291930Y0050676D01*
X0291199Y0048911D01*
X0291199Y0047002D01*
X0291930Y0045238D01*
X0293280Y0043887D01*
X0295045Y0043157D01*
X0296954Y0043157D01*
X0298718Y0043887D01*
X0300069Y0045238D01*
X0300799Y0047002D01*
X0300799Y0048911D01*
X0300069Y0050676D01*
X0298718Y0052026D01*
X0296954Y0052757D01*
X0295045Y0052757D01*
X0295499Y0053109D02*
X0296499Y0053109D01*
X0296499Y0052771D02*
X0297217Y0052885D01*
X0297995Y0053138D01*
X0298725Y0053509D01*
X0299387Y0053990D01*
X0299966Y0054569D01*
X0300447Y0055231D01*
X0300818Y0055961D01*
X0300999Y0056518D01*
X0301180Y0055961D01*
X0301552Y0055231D01*
X0302033Y0054569D01*
X0302612Y0053990D01*
X0303274Y0053509D01*
X0304003Y0053138D01*
X0304782Y0052885D01*
X0305499Y0052771D01*
X0305499Y0057457D01*
X0300814Y0057457D01*
X0296499Y0057457D01*
X0296499Y0052771D01*
X0296499Y0054107D02*
X0295499Y0054107D01*
X0295499Y0055106D02*
X0296499Y0055106D01*
X0296499Y0056104D02*
X0295499Y0056104D01*
X0295499Y0057103D02*
X0296499Y0057103D01*
X0296499Y0057457D02*
X0295499Y0057457D01*
X0295499Y0058457D01*
X0295499Y0063142D01*
X0294782Y0063029D01*
X0294003Y0062776D01*
X0293274Y0062404D01*
X0292612Y0061923D01*
X0292033Y0061344D01*
X0291552Y0060682D01*
X0291180Y0059953D01*
X0290927Y0059174D01*
X0290814Y0058457D01*
X0295499Y0058457D01*
X0296499Y0058457D01*
X0296499Y0063142D01*
X0297217Y0063029D01*
X0297995Y0062776D01*
X0298725Y0062404D01*
X0299387Y0061923D01*
X0299966Y0061344D01*
X0300447Y0060682D01*
X0300818Y0059953D01*
X0300999Y0059396D01*
X0301180Y0059953D01*
X0301552Y0060682D01*
X0302033Y0061344D01*
X0302612Y0061923D01*
X0303274Y0062404D01*
X0304003Y0062776D01*
X0304782Y0063029D01*
X0305499Y0063142D01*
X0305499Y0058457D01*
X0306499Y0058457D01*
X0306499Y0063142D01*
X0307217Y0063029D01*
X0307995Y0062776D01*
X0308725Y0062404D01*
X0309387Y0061923D01*
X0309966Y0061344D01*
X0310447Y0060682D01*
X0310818Y0059953D01*
X0310999Y0059396D01*
X0311180Y0059953D01*
X0311552Y0060682D01*
X0312033Y0061344D01*
X0312612Y0061923D01*
X0313274Y0062404D01*
X0314003Y0062776D01*
X0314782Y0063029D01*
X0315499Y0063142D01*
X0315499Y0058457D01*
X0316499Y0058457D01*
X0316499Y0063142D01*
X0317217Y0063029D01*
X0317995Y0062776D01*
X0318725Y0062404D01*
X0319387Y0061923D01*
X0319966Y0061344D01*
X0320447Y0060682D01*
X0320818Y0059953D01*
X0320999Y0059396D01*
X0321180Y0059953D01*
X0321552Y0060682D01*
X0322033Y0061344D01*
X0322612Y0061923D01*
X0323274Y0062404D01*
X0324003Y0062776D01*
X0324782Y0063029D01*
X0325499Y0063142D01*
X0325499Y0058457D01*
X0326499Y0058457D01*
X0326499Y0063142D01*
X0327217Y0063029D01*
X0327995Y0062776D01*
X0328725Y0062404D01*
X0329387Y0061923D01*
X0329966Y0061344D01*
X0330447Y0060682D01*
X0330818Y0059953D01*
X0331071Y0059174D01*
X0331185Y0058457D01*
X0326499Y0058457D01*
X0326499Y0057457D01*
X0331185Y0057457D01*
X0331071Y0056739D01*
X0330818Y0055961D01*
X0330447Y0055231D01*
X0329966Y0054569D01*
X0329387Y0053990D01*
X0328725Y0053509D01*
X0327995Y0053138D01*
X0327217Y0052885D01*
X0326499Y0052771D01*
X0326499Y0057457D01*
X0325499Y0057457D01*
X0316499Y0057457D01*
X0316499Y0052771D01*
X0317217Y0052885D01*
X0317995Y0053138D01*
X0318725Y0053509D01*
X0319387Y0053990D01*
X0319966Y0054569D01*
X0320447Y0055231D01*
X0320818Y0055961D01*
X0320999Y0056518D01*
X0321180Y0055961D01*
X0321552Y0055231D01*
X0322033Y0054569D01*
X0322612Y0053990D01*
X0323274Y0053509D01*
X0324003Y0053138D01*
X0324782Y0052885D01*
X0325499Y0052771D01*
X0325499Y0057457D01*
X0325499Y0058457D01*
X0321185Y0058457D01*
X0316499Y0058457D01*
X0316499Y0057457D01*
X0315499Y0057457D01*
X0310814Y0057457D01*
X0306499Y0057457D01*
X0306499Y0052771D01*
X0307217Y0052885D01*
X0307995Y0053138D01*
X0308725Y0053509D01*
X0309387Y0053990D01*
X0309966Y0054569D01*
X0310447Y0055231D01*
X0310818Y0055961D01*
X0310999Y0056518D01*
X0311180Y0055961D01*
X0311552Y0055231D01*
X0312033Y0054569D01*
X0312612Y0053990D01*
X0313274Y0053509D01*
X0314003Y0053138D01*
X0314782Y0052885D01*
X0315499Y0052771D01*
X0315499Y0057457D01*
X0315499Y0058457D01*
X0306499Y0058457D01*
X0306499Y0057457D01*
X0305499Y0057457D01*
X0305499Y0058457D01*
X0296499Y0058457D01*
X0296499Y0057457D01*
X0296499Y0058101D02*
X0305499Y0058101D01*
X0305499Y0057103D02*
X0306499Y0057103D01*
X0306499Y0058101D02*
X0315499Y0058101D01*
X0315499Y0057103D02*
X0316499Y0057103D01*
X0316499Y0058101D02*
X0325499Y0058101D01*
X0325499Y0057103D02*
X0326499Y0057103D01*
X0326499Y0058101D02*
X0360267Y0058101D01*
X0360267Y0057103D02*
X0331129Y0057103D01*
X0330865Y0056104D02*
X0360267Y0056104D01*
X0360267Y0055106D02*
X0330356Y0055106D01*
X0329504Y0054107D02*
X0360267Y0054107D01*
X0360267Y0053109D02*
X0327907Y0053109D01*
X0326954Y0052757D02*
X0325045Y0052757D01*
X0323280Y0052026D01*
X0321930Y0050676D01*
X0321199Y0048911D01*
X0321199Y0047002D01*
X0321930Y0045238D01*
X0323280Y0043887D01*
X0325045Y0043157D01*
X0326954Y0043157D01*
X0328718Y0043887D01*
X0330069Y0045238D01*
X0330799Y0047002D01*
X0330799Y0048911D01*
X0330069Y0050676D01*
X0328718Y0052026D01*
X0326954Y0052757D01*
X0326499Y0053109D02*
X0325499Y0053109D01*
X0325499Y0054107D02*
X0326499Y0054107D01*
X0326499Y0055106D02*
X0325499Y0055106D01*
X0325499Y0056104D02*
X0326499Y0056104D01*
X0326499Y0059100D02*
X0325499Y0059100D01*
X0325499Y0060098D02*
X0326499Y0060098D01*
X0326499Y0061097D02*
X0325499Y0061097D01*
X0325499Y0062095D02*
X0326499Y0062095D01*
X0326499Y0063094D02*
X0325499Y0063094D01*
X0325194Y0063094D02*
X0316804Y0063094D01*
X0316499Y0063094D02*
X0315499Y0063094D01*
X0315194Y0063094D02*
X0306804Y0063094D01*
X0306499Y0063094D02*
X0305499Y0063094D01*
X0305194Y0063094D02*
X0296804Y0063094D01*
X0296499Y0063094D02*
X0295499Y0063094D01*
X0295194Y0063094D02*
X0228954Y0063094D01*
X0228550Y0062095D02*
X0253448Y0062095D01*
X0253280Y0062026D02*
X0251930Y0060676D01*
X0251199Y0058911D01*
X0251199Y0057002D01*
X0251930Y0055238D01*
X0253280Y0053887D01*
X0255045Y0053157D01*
X0256954Y0053157D01*
X0258718Y0053887D01*
X0260069Y0055238D01*
X0260799Y0057002D01*
X0260799Y0058911D01*
X0260069Y0060676D01*
X0258718Y0062026D01*
X0256954Y0062757D01*
X0255045Y0062757D01*
X0253280Y0062026D01*
X0252351Y0061097D02*
X0248657Y0061097D01*
X0247698Y0062057D02*
X0244301Y0062057D01*
X0241899Y0059655D01*
X0241899Y0056258D01*
X0244301Y0053857D01*
X0247698Y0053857D01*
X0250099Y0056258D01*
X0250099Y0059655D01*
X0247698Y0062057D01*
X0249656Y0060098D02*
X0251691Y0060098D01*
X0251277Y0059100D02*
X0250099Y0059100D01*
X0250099Y0058101D02*
X0251199Y0058101D01*
X0251199Y0057103D02*
X0250099Y0057103D01*
X0249945Y0056104D02*
X0251571Y0056104D01*
X0252062Y0055106D02*
X0248947Y0055106D01*
X0247948Y0054107D02*
X0253060Y0054107D01*
X0258514Y0052110D02*
X0263484Y0052110D01*
X0262366Y0051112D02*
X0259632Y0051112D01*
X0260301Y0050113D02*
X0261697Y0050113D01*
X0261565Y0046119D02*
X0260434Y0046119D01*
X0259952Y0045121D02*
X0262047Y0045121D01*
X0263045Y0044122D02*
X0258953Y0044122D01*
X0255008Y0043124D02*
X0335822Y0043124D01*
X0335822Y0043125D02*
X0335076Y0040342D01*
X0335076Y0037461D01*
X0335822Y0034678D01*
X0337263Y0032183D01*
X0339300Y0030145D01*
X0341795Y0028705D01*
X0344578Y0027959D01*
X0347460Y0027959D01*
X0350243Y0028705D01*
X0352738Y0030145D01*
X0354775Y0032183D01*
X0356216Y0034678D01*
X0356961Y0037461D01*
X0356961Y0040342D01*
X0356216Y0043125D01*
X0354775Y0045620D01*
X0352738Y0047658D01*
X0350243Y0049098D01*
X0347460Y0049844D01*
X0344578Y0049844D01*
X0341795Y0049098D01*
X0339300Y0047658D01*
X0337263Y0045620D01*
X0335822Y0043125D01*
X0335554Y0042125D02*
X0254009Y0042125D01*
X0258938Y0054107D02*
X0263060Y0054107D01*
X0263280Y0053887D02*
X0261930Y0055238D01*
X0261199Y0057002D01*
X0261199Y0058911D01*
X0261930Y0060676D01*
X0263280Y0062026D01*
X0265045Y0062757D01*
X0266954Y0062757D01*
X0268718Y0062026D01*
X0270069Y0060676D01*
X0270799Y0058911D01*
X0270799Y0057002D01*
X0270069Y0055238D01*
X0268718Y0053887D01*
X0266954Y0053157D01*
X0265045Y0053157D01*
X0263280Y0053887D01*
X0262062Y0055106D02*
X0259937Y0055106D01*
X0260428Y0056104D02*
X0261571Y0056104D01*
X0261199Y0057103D02*
X0260799Y0057103D01*
X0260799Y0058101D02*
X0261199Y0058101D01*
X0261277Y0059100D02*
X0260721Y0059100D01*
X0260308Y0060098D02*
X0261691Y0060098D01*
X0262351Y0061097D02*
X0259647Y0061097D01*
X0258550Y0062095D02*
X0263448Y0062095D01*
X0268550Y0062095D02*
X0273448Y0062095D01*
X0273280Y0062026D02*
X0271930Y0060676D01*
X0271199Y0058911D01*
X0271199Y0057002D01*
X0271930Y0055238D01*
X0273280Y0053887D01*
X0275045Y0053157D01*
X0276954Y0053157D01*
X0278718Y0053887D01*
X0280069Y0055238D01*
X0280799Y0057002D01*
X0280799Y0058911D01*
X0280069Y0060676D01*
X0278718Y0062026D01*
X0276954Y0062757D01*
X0275045Y0062757D01*
X0273280Y0062026D01*
X0272351Y0061097D02*
X0269647Y0061097D01*
X0270308Y0060098D02*
X0271691Y0060098D01*
X0271277Y0059100D02*
X0270721Y0059100D01*
X0270799Y0058101D02*
X0271199Y0058101D01*
X0271199Y0057103D02*
X0270799Y0057103D01*
X0270428Y0056104D02*
X0271571Y0056104D01*
X0272062Y0055106D02*
X0269937Y0055106D01*
X0268938Y0054107D02*
X0273060Y0054107D01*
X0273484Y0052110D02*
X0268514Y0052110D01*
X0269632Y0051112D02*
X0272366Y0051112D01*
X0271697Y0050113D02*
X0270301Y0050113D01*
X0270434Y0046119D02*
X0271565Y0046119D01*
X0272047Y0045121D02*
X0269952Y0045121D01*
X0268953Y0044122D02*
X0273045Y0044122D01*
X0278953Y0044122D02*
X0283045Y0044122D01*
X0282047Y0045121D02*
X0279952Y0045121D01*
X0280434Y0046119D02*
X0281565Y0046119D01*
X0281697Y0050113D02*
X0280301Y0050113D01*
X0279632Y0051112D02*
X0282366Y0051112D01*
X0283484Y0052110D02*
X0278514Y0052110D01*
X0278938Y0054107D02*
X0283060Y0054107D01*
X0283280Y0053887D02*
X0285045Y0053157D01*
X0286954Y0053157D01*
X0288718Y0053887D01*
X0290069Y0055238D01*
X0290799Y0057002D01*
X0290799Y0058911D01*
X0290069Y0060676D01*
X0288718Y0062026D01*
X0286954Y0062757D01*
X0285045Y0062757D01*
X0283280Y0062026D01*
X0281930Y0060676D01*
X0281199Y0058911D01*
X0281199Y0057002D01*
X0281930Y0055238D01*
X0283280Y0053887D01*
X0282062Y0055106D02*
X0279937Y0055106D01*
X0280428Y0056104D02*
X0281571Y0056104D01*
X0281199Y0057103D02*
X0280799Y0057103D01*
X0280799Y0058101D02*
X0281199Y0058101D01*
X0281277Y0059100D02*
X0280721Y0059100D01*
X0280308Y0060098D02*
X0281691Y0060098D01*
X0282351Y0061097D02*
X0279647Y0061097D01*
X0278550Y0062095D02*
X0283448Y0062095D01*
X0288550Y0062095D02*
X0292849Y0062095D01*
X0291853Y0061097D02*
X0289647Y0061097D01*
X0290308Y0060098D02*
X0291254Y0060098D01*
X0290916Y0059100D02*
X0290721Y0059100D01*
X0290799Y0058101D02*
X0295499Y0058101D01*
X0295499Y0059100D02*
X0296499Y0059100D01*
X0296499Y0060098D02*
X0295499Y0060098D01*
X0295499Y0061097D02*
X0296499Y0061097D01*
X0296499Y0062095D02*
X0295499Y0062095D01*
X0299149Y0062095D02*
X0302849Y0062095D01*
X0301853Y0061097D02*
X0300145Y0061097D01*
X0300744Y0060098D02*
X0301254Y0060098D01*
X0301134Y0056104D02*
X0300865Y0056104D01*
X0300356Y0055106D02*
X0301643Y0055106D01*
X0302495Y0054107D02*
X0299504Y0054107D01*
X0297907Y0053109D02*
X0304092Y0053109D01*
X0305045Y0052757D02*
X0303280Y0052026D01*
X0301930Y0050676D01*
X0301199Y0048911D01*
X0301199Y0047002D01*
X0301930Y0045238D01*
X0303280Y0043887D01*
X0305045Y0043157D01*
X0306954Y0043157D01*
X0308718Y0043887D01*
X0310069Y0045238D01*
X0310799Y0047002D01*
X0310799Y0048911D01*
X0310069Y0050676D01*
X0308718Y0052026D01*
X0306954Y0052757D01*
X0305045Y0052757D01*
X0305499Y0053109D02*
X0306499Y0053109D01*
X0306499Y0054107D02*
X0305499Y0054107D01*
X0305499Y0055106D02*
X0306499Y0055106D01*
X0306499Y0056104D02*
X0305499Y0056104D01*
X0305499Y0059100D02*
X0306499Y0059100D01*
X0306499Y0060098D02*
X0305499Y0060098D01*
X0305499Y0061097D02*
X0306499Y0061097D01*
X0306499Y0062095D02*
X0305499Y0062095D01*
X0309149Y0062095D02*
X0312849Y0062095D01*
X0311853Y0061097D02*
X0310145Y0061097D01*
X0310744Y0060098D02*
X0311254Y0060098D01*
X0311134Y0056104D02*
X0310865Y0056104D01*
X0310356Y0055106D02*
X0311643Y0055106D01*
X0312495Y0054107D02*
X0309504Y0054107D01*
X0307907Y0053109D02*
X0314092Y0053109D01*
X0315045Y0052757D02*
X0313280Y0052026D01*
X0311930Y0050676D01*
X0311199Y0048911D01*
X0311199Y0047002D01*
X0311930Y0045238D01*
X0313280Y0043887D01*
X0315045Y0043157D01*
X0316954Y0043157D01*
X0318718Y0043887D01*
X0320069Y0045238D01*
X0320799Y0047002D01*
X0320799Y0048911D01*
X0320069Y0050676D01*
X0318718Y0052026D01*
X0316954Y0052757D01*
X0315045Y0052757D01*
X0315499Y0053109D02*
X0316499Y0053109D01*
X0316499Y0054107D02*
X0315499Y0054107D01*
X0315499Y0055106D02*
X0316499Y0055106D01*
X0316499Y0056104D02*
X0315499Y0056104D01*
X0315499Y0059100D02*
X0316499Y0059100D01*
X0316499Y0060098D02*
X0315499Y0060098D01*
X0315499Y0061097D02*
X0316499Y0061097D01*
X0316499Y0062095D02*
X0315499Y0062095D01*
X0319149Y0062095D02*
X0322849Y0062095D01*
X0321853Y0061097D02*
X0320145Y0061097D01*
X0320744Y0060098D02*
X0321254Y0060098D01*
X0321134Y0056104D02*
X0320865Y0056104D01*
X0320356Y0055106D02*
X0321643Y0055106D01*
X0322495Y0054107D02*
X0319504Y0054107D01*
X0317907Y0053109D02*
X0324092Y0053109D01*
X0323484Y0052110D02*
X0318514Y0052110D01*
X0319632Y0051112D02*
X0322366Y0051112D01*
X0321697Y0050113D02*
X0320301Y0050113D01*
X0320715Y0049115D02*
X0321284Y0049115D01*
X0321199Y0048116D02*
X0320799Y0048116D01*
X0320799Y0047118D02*
X0321199Y0047118D01*
X0321565Y0046119D02*
X0320434Y0046119D01*
X0319952Y0045121D02*
X0322047Y0045121D01*
X0323045Y0044122D02*
X0318953Y0044122D01*
X0313045Y0044122D02*
X0308953Y0044122D01*
X0309952Y0045121D02*
X0312047Y0045121D01*
X0311565Y0046119D02*
X0310434Y0046119D01*
X0310799Y0047118D02*
X0311199Y0047118D01*
X0311199Y0048116D02*
X0310799Y0048116D01*
X0310715Y0049115D02*
X0311284Y0049115D01*
X0311697Y0050113D02*
X0310301Y0050113D01*
X0309632Y0051112D02*
X0312366Y0051112D01*
X0313484Y0052110D02*
X0308514Y0052110D01*
X0303484Y0052110D02*
X0298514Y0052110D01*
X0299632Y0051112D02*
X0302366Y0051112D01*
X0301697Y0050113D02*
X0300301Y0050113D01*
X0300715Y0049115D02*
X0301284Y0049115D01*
X0301199Y0048116D02*
X0300799Y0048116D01*
X0300799Y0047118D02*
X0301199Y0047118D01*
X0301565Y0046119D02*
X0300434Y0046119D01*
X0299952Y0045121D02*
X0302047Y0045121D01*
X0303045Y0044122D02*
X0298953Y0044122D01*
X0293045Y0044122D02*
X0288953Y0044122D01*
X0289952Y0045121D02*
X0292047Y0045121D01*
X0291565Y0046119D02*
X0290434Y0046119D01*
X0290799Y0047118D02*
X0291199Y0047118D01*
X0291199Y0048116D02*
X0290799Y0048116D01*
X0290715Y0049115D02*
X0291284Y0049115D01*
X0291697Y0050113D02*
X0290301Y0050113D01*
X0289632Y0051112D02*
X0292366Y0051112D01*
X0293484Y0052110D02*
X0288514Y0052110D01*
X0288938Y0054107D02*
X0292495Y0054107D01*
X0291643Y0055106D02*
X0289937Y0055106D01*
X0290428Y0056104D02*
X0291134Y0056104D01*
X0290870Y0057103D02*
X0290799Y0057103D01*
X0292902Y0081067D02*
X0360267Y0081067D01*
X0360267Y0080069D02*
X0245929Y0080069D01*
X0244930Y0079070D02*
X0360267Y0079070D01*
X0360267Y0078072D02*
X0243932Y0078072D01*
X0242933Y0077073D02*
X0360267Y0077073D01*
X0360267Y0076075D02*
X0241935Y0076075D01*
X0240936Y0075076D02*
X0360267Y0075076D01*
X0360267Y0074078D02*
X0239938Y0074078D01*
X0238939Y0073079D02*
X0360267Y0073079D01*
X0360267Y0072081D02*
X0237941Y0072081D01*
X0236942Y0071082D02*
X0360267Y0071082D01*
X0360267Y0070084D02*
X0235944Y0070084D01*
X0234945Y0069085D02*
X0360267Y0069085D01*
X0360267Y0068087D02*
X0233947Y0068087D01*
X0232948Y0067088D02*
X0360267Y0067088D01*
X0360267Y0066090D02*
X0231950Y0066090D01*
X0230951Y0065091D02*
X0360267Y0065091D01*
X0360267Y0064093D02*
X0229953Y0064093D01*
X0228718Y0062026D02*
X0226954Y0062757D01*
X0225045Y0062757D01*
X0223280Y0062026D01*
X0221930Y0060676D01*
X0221199Y0058911D01*
X0221199Y0057002D01*
X0221930Y0055238D01*
X0223280Y0053887D01*
X0225045Y0053157D01*
X0226954Y0053157D01*
X0228718Y0053887D01*
X0230069Y0055238D01*
X0230799Y0057002D01*
X0230799Y0058911D01*
X0230069Y0060676D01*
X0228718Y0062026D01*
X0229647Y0061097D02*
X0233341Y0061097D01*
X0234301Y0062057D02*
X0231899Y0059655D01*
X0231899Y0056258D01*
X0234301Y0053857D01*
X0237698Y0053857D01*
X0240099Y0056258D01*
X0240099Y0059655D01*
X0237698Y0062057D01*
X0234301Y0062057D01*
X0232343Y0060098D02*
X0230308Y0060098D01*
X0230721Y0059100D02*
X0231899Y0059100D01*
X0231899Y0058101D02*
X0230799Y0058101D01*
X0230799Y0057103D02*
X0231899Y0057103D01*
X0232053Y0056104D02*
X0230428Y0056104D01*
X0229937Y0055106D02*
X0233052Y0055106D01*
X0234050Y0054107D02*
X0228938Y0054107D01*
X0225288Y0053109D02*
X0210376Y0053109D01*
X0210770Y0054107D02*
X0223060Y0054107D01*
X0222062Y0055106D02*
X0210770Y0055106D01*
X0210147Y0056104D02*
X0221571Y0056104D01*
X0221199Y0057103D02*
X0211113Y0057103D01*
X0212111Y0058101D02*
X0221199Y0058101D01*
X0221277Y0059100D02*
X0213110Y0059100D01*
X0214108Y0060098D02*
X0221691Y0060098D01*
X0222351Y0061097D02*
X0215107Y0061097D01*
X0216105Y0062095D02*
X0223448Y0062095D01*
X0238657Y0061097D02*
X0243341Y0061097D01*
X0242343Y0060098D02*
X0239656Y0060098D01*
X0240099Y0059100D02*
X0241899Y0059100D01*
X0241899Y0058101D02*
X0240099Y0058101D01*
X0240099Y0057103D02*
X0241899Y0057103D01*
X0242053Y0056104D02*
X0239945Y0056104D01*
X0238947Y0055106D02*
X0243052Y0055106D01*
X0244050Y0054107D02*
X0237948Y0054107D01*
X0222497Y0042125D02*
X0132074Y0042125D01*
X0132342Y0041127D02*
X0335287Y0041127D01*
X0335076Y0040128D02*
X0191404Y0040128D01*
X0191329Y0040166D02*
X0190655Y0040385D01*
X0190102Y0040473D01*
X0190102Y0033496D01*
X0194102Y0033496D01*
X0194102Y0036350D01*
X0193991Y0037050D01*
X0193772Y0037723D01*
X0193450Y0038355D01*
X0193034Y0038928D01*
X0192533Y0039428D01*
X0191960Y0039845D01*
X0191329Y0040166D01*
X0190102Y0040128D02*
X0189102Y0040128D01*
X0189102Y0040473D02*
X0188548Y0040385D01*
X0187874Y0040166D01*
X0187243Y0039845D01*
X0186670Y0039428D01*
X0186169Y0038928D01*
X0185753Y0038355D01*
X0185431Y0037723D01*
X0185212Y0037050D01*
X0185102Y0036350D01*
X0185102Y0033496D01*
X0189102Y0033496D01*
X0189102Y0040473D01*
X0189102Y0039130D02*
X0190102Y0039130D01*
X0190102Y0038131D02*
X0189102Y0038131D01*
X0189102Y0037133D02*
X0190102Y0037133D01*
X0190102Y0036134D02*
X0189102Y0036134D01*
X0189102Y0035136D02*
X0190102Y0035136D01*
X0190102Y0034137D02*
X0189102Y0034137D01*
X0189102Y0033496D02*
X0190102Y0033496D01*
X0190102Y0032496D01*
X0194102Y0032496D01*
X0194102Y0029642D01*
X0193991Y0028942D01*
X0193772Y0028269D01*
X0193450Y0027638D01*
X0193034Y0027065D01*
X0192533Y0026564D01*
X0191960Y0026147D01*
X0191329Y0025826D01*
X0190655Y0025607D01*
X0190102Y0025519D01*
X0190102Y0032496D01*
X0189102Y0032496D01*
X0189102Y0025519D01*
X0188548Y0025607D01*
X0187874Y0025826D01*
X0187243Y0026147D01*
X0186670Y0026564D01*
X0186169Y0027065D01*
X0185753Y0027638D01*
X0185431Y0028269D01*
X0185212Y0028942D01*
X0185102Y0029642D01*
X0185102Y0032496D01*
X0189102Y0032496D01*
X0189102Y0033496D01*
X0189102Y0033139D02*
X0183702Y0033139D01*
X0183702Y0034137D02*
X0185102Y0034137D01*
X0185102Y0035136D02*
X0183702Y0035136D01*
X0183702Y0036134D02*
X0185102Y0036134D01*
X0185239Y0037133D02*
X0183569Y0037133D01*
X0183702Y0036812D02*
X0183077Y0038319D01*
X0181924Y0039472D01*
X0180417Y0040096D01*
X0178786Y0040096D01*
X0177279Y0039472D01*
X0176126Y0038319D01*
X0175502Y0036812D01*
X0175502Y0029181D01*
X0176126Y0027674D01*
X0177279Y0026520D01*
X0178786Y0025896D01*
X0180417Y0025896D01*
X0181924Y0026520D01*
X0183077Y0027674D01*
X0183702Y0029181D01*
X0183702Y0036812D01*
X0183155Y0038131D02*
X0185639Y0038131D01*
X0186371Y0039130D02*
X0182266Y0039130D01*
X0187799Y0040128D02*
X0132552Y0040128D01*
X0132552Y0039130D02*
X0176937Y0039130D01*
X0176048Y0038131D02*
X0132552Y0038131D01*
X0132464Y0037133D02*
X0175635Y0037133D01*
X0175502Y0036134D02*
X0132197Y0036134D01*
X0131929Y0035136D02*
X0175502Y0035136D01*
X0175502Y0034137D02*
X0131494Y0034137D01*
X0130918Y0033139D02*
X0175502Y0033139D01*
X0175502Y0032140D02*
X0130323Y0032140D01*
X0129325Y0031142D02*
X0175502Y0031142D01*
X0175502Y0030143D02*
X0128324Y0030143D01*
X0126595Y0029145D02*
X0175517Y0029145D01*
X0175930Y0028146D02*
X0123748Y0028146D01*
X0121834Y0025151D02*
X0345795Y0025151D01*
X0349075Y0026149D02*
X0191963Y0026149D01*
X0193094Y0027148D02*
X0351148Y0027148D01*
X0352641Y0028146D02*
X0348158Y0028146D01*
X0351004Y0029145D02*
X0353893Y0029145D01*
X0352734Y0030143D02*
X0355071Y0030143D01*
X0355867Y0031142D02*
X0353734Y0031142D01*
X0354733Y0032140D02*
X0356664Y0032140D01*
X0357460Y0033139D02*
X0355327Y0033139D01*
X0355904Y0034137D02*
X0357949Y0034137D01*
X0358429Y0035136D02*
X0356338Y0035136D01*
X0356606Y0036134D02*
X0358910Y0036134D01*
X0359315Y0037133D02*
X0356874Y0037133D01*
X0356961Y0038131D02*
X0359543Y0038131D01*
X0359771Y0039130D02*
X0356961Y0039130D01*
X0356961Y0040128D02*
X0359999Y0040128D01*
X0360171Y0041127D02*
X0356751Y0041127D01*
X0356484Y0042125D02*
X0360227Y0042125D01*
X0360267Y0043124D02*
X0356216Y0043124D01*
X0355640Y0044122D02*
X0360267Y0044122D01*
X0360267Y0045121D02*
X0355064Y0045121D01*
X0354276Y0046119D02*
X0360267Y0046119D01*
X0360267Y0047118D02*
X0353278Y0047118D01*
X0351944Y0048116D02*
X0360267Y0048116D01*
X0360267Y0049115D02*
X0350181Y0049115D01*
X0341857Y0049115D02*
X0330715Y0049115D01*
X0330799Y0048116D02*
X0340094Y0048116D01*
X0338760Y0047118D02*
X0330799Y0047118D01*
X0330434Y0046119D02*
X0337762Y0046119D01*
X0336974Y0045121D02*
X0329952Y0045121D01*
X0328953Y0044122D02*
X0336398Y0044122D01*
X0330301Y0050113D02*
X0360267Y0050113D01*
X0360267Y0051112D02*
X0329632Y0051112D01*
X0328514Y0052110D02*
X0360267Y0052110D01*
X0360267Y0059100D02*
X0331083Y0059100D01*
X0330744Y0060098D02*
X0360267Y0060098D01*
X0360267Y0061097D02*
X0330145Y0061097D01*
X0329149Y0062095D02*
X0360267Y0062095D01*
X0360267Y0063094D02*
X0326804Y0063094D01*
X0319755Y0084063D02*
X0360267Y0084063D01*
X0360267Y0085061D02*
X0320754Y0085061D01*
X0320849Y0086060D02*
X0360267Y0086060D01*
X0360267Y0087058D02*
X0320849Y0087058D01*
X0319927Y0088057D02*
X0360267Y0088057D01*
X0360267Y0089055D02*
X0305063Y0089055D01*
X0305101Y0090054D02*
X0360267Y0090054D01*
X0360267Y0091052D02*
X0305101Y0091052D01*
X0304122Y0092051D02*
X0309176Y0092051D01*
X0310586Y0094020D02*
X0274995Y0094020D01*
X0261361Y0107654D01*
X0263750Y0108027D02*
X0264890Y0108027D01*
X0264890Y0108789D02*
X0264890Y0106810D01*
X0266289Y0105410D01*
X0267405Y0105410D01*
X0273021Y0099794D01*
X0273959Y0098857D01*
X0285067Y0098857D01*
X0285856Y0098068D01*
X0287835Y0098068D01*
X0289235Y0099467D01*
X0289235Y0101446D01*
X0287835Y0102846D01*
X0285856Y0102846D01*
X0285067Y0102057D01*
X0275284Y0102057D01*
X0269668Y0107673D01*
X0269668Y0108789D01*
X0268268Y0110188D01*
X0266289Y0110188D01*
X0264890Y0108789D01*
X0265127Y0109026D02*
X0263368Y0109026D01*
X0262370Y0110024D02*
X0266125Y0110024D01*
X0268433Y0110024D02*
X0275455Y0110024D01*
X0274732Y0111023D02*
X0260250Y0111023D01*
X0260250Y0112021D02*
X0274732Y0112021D01*
X0275026Y0113020D02*
X0259374Y0113020D01*
X0257861Y0111154D02*
X0257861Y0105831D01*
X0257861Y0103437D01*
X0271216Y0090083D01*
X0302712Y0090083D01*
X0304064Y0088057D02*
X0316993Y0088057D01*
X0318460Y0086146D02*
X0269247Y0086146D01*
X0255468Y0099925D01*
X0255468Y0107799D01*
X0257861Y0105831D02*
X0257861Y0105406D01*
X0260110Y0110024D02*
X0260353Y0110024D01*
X0264249Y0107028D02*
X0264890Y0107028D01*
X0265248Y0106030D02*
X0265670Y0106030D01*
X0266246Y0105031D02*
X0267784Y0105031D01*
X0267245Y0104033D02*
X0268782Y0104033D01*
X0268243Y0103034D02*
X0269781Y0103034D01*
X0269242Y0102036D02*
X0270779Y0102036D01*
X0270240Y0101037D02*
X0271778Y0101037D01*
X0271239Y0100039D02*
X0272776Y0100039D01*
X0272237Y0099040D02*
X0273775Y0099040D01*
X0273236Y0098042D02*
X0360267Y0098042D01*
X0360267Y0099040D02*
X0334227Y0099040D01*
X0334236Y0099043D02*
X0334965Y0099415D01*
X0335627Y0099896D01*
X0336206Y0100475D01*
X0336687Y0101137D01*
X0337058Y0101866D01*
X0337311Y0102645D01*
X0337425Y0103362D01*
X0332739Y0103362D01*
X0332739Y0098677D01*
X0333457Y0098790D01*
X0334236Y0099043D01*
X0332739Y0099040D02*
X0331739Y0099040D01*
X0331739Y0098677D02*
X0331022Y0098790D01*
X0330243Y0099043D01*
X0329514Y0099415D01*
X0328852Y0099896D01*
X0328273Y0100475D01*
X0327792Y0101137D01*
X0327420Y0101866D01*
X0327167Y0102645D01*
X0327054Y0103362D01*
X0331739Y0103362D01*
X0331739Y0104362D01*
X0327054Y0104362D01*
X0327167Y0105080D01*
X0327420Y0105858D01*
X0327792Y0106588D01*
X0328273Y0107250D01*
X0328852Y0107829D01*
X0329514Y0108310D01*
X0330243Y0108681D01*
X0331022Y0108934D01*
X0331739Y0109048D01*
X0331739Y0104362D01*
X0332739Y0104362D01*
X0332739Y0109048D01*
X0333457Y0108934D01*
X0334236Y0108681D01*
X0334965Y0108310D01*
X0335627Y0107829D01*
X0336206Y0107250D01*
X0336687Y0106588D01*
X0337058Y0105858D01*
X0337311Y0105080D01*
X0337425Y0104362D01*
X0332739Y0104362D01*
X0332739Y0103362D01*
X0331739Y0103362D01*
X0331739Y0098677D01*
X0331739Y0100039D02*
X0332739Y0100039D01*
X0332739Y0101037D02*
X0331739Y0101037D01*
X0331739Y0102036D02*
X0332739Y0102036D01*
X0332739Y0103034D02*
X0331739Y0103034D01*
X0331739Y0104033D02*
X0327039Y0104033D01*
X0327039Y0104817D02*
X0326309Y0106581D01*
X0324958Y0107931D01*
X0323194Y0108662D01*
X0321285Y0108662D01*
X0319520Y0107931D01*
X0318170Y0106581D01*
X0317439Y0104817D01*
X0317439Y0102907D01*
X0318170Y0101143D01*
X0319520Y0099793D01*
X0321285Y0099062D01*
X0323194Y0099062D01*
X0324958Y0099793D01*
X0326309Y0101143D01*
X0327039Y0102907D01*
X0327039Y0104817D01*
X0326951Y0105031D02*
X0327160Y0105031D01*
X0327508Y0106030D02*
X0326537Y0106030D01*
X0325861Y0107028D02*
X0328112Y0107028D01*
X0329125Y0108027D02*
X0324728Y0108027D01*
X0319751Y0108027D02*
X0269668Y0108027D01*
X0269431Y0109026D02*
X0331599Y0109026D01*
X0331739Y0109026D02*
X0332739Y0109026D01*
X0332880Y0109026D02*
X0360267Y0109026D01*
X0360267Y0110024D02*
X0357944Y0110024D01*
X0358667Y0111023D02*
X0360267Y0111023D01*
X0360267Y0112021D02*
X0358667Y0112021D01*
X0358373Y0113020D02*
X0360267Y0113020D01*
X0360267Y0114018D02*
X0357375Y0114018D01*
X0355181Y0114018D02*
X0345404Y0114018D01*
X0346348Y0115017D02*
X0360267Y0115017D01*
X0360267Y0116015D02*
X0346761Y0116015D01*
X0347039Y0117014D02*
X0360267Y0117014D01*
X0360267Y0118012D02*
X0347039Y0118012D01*
X0346868Y0119011D02*
X0360267Y0119011D01*
X0360267Y0120009D02*
X0346454Y0120009D01*
X0345662Y0121008D02*
X0360267Y0121008D01*
X0360267Y0122006D02*
X0358209Y0122006D01*
X0359208Y0123005D02*
X0360267Y0123005D01*
X0359456Y0125516D02*
X0357487Y0123547D01*
X0273184Y0123547D01*
X0271347Y0122006D02*
X0255337Y0122006D01*
X0255888Y0123005D02*
X0270795Y0123005D01*
X0270795Y0124003D02*
X0256218Y0124003D01*
X0257216Y0125002D02*
X0271260Y0125002D01*
X0272764Y0125936D02*
X0274174Y0125936D01*
X0274594Y0125516D01*
X0355861Y0125516D01*
X0359478Y0129132D01*
X0359478Y0154805D01*
X0357089Y0154957D02*
X0345177Y0154957D01*
X0344958Y0155176D02*
X0343194Y0155906D01*
X0341285Y0155906D01*
X0339520Y0155176D01*
X0338170Y0153825D01*
X0337439Y0152061D01*
X0337439Y0150152D01*
X0338170Y0148387D01*
X0339520Y0147037D01*
X0341285Y0146306D01*
X0343194Y0146306D01*
X0344958Y0147037D01*
X0346309Y0148387D01*
X0347039Y0150152D01*
X0347039Y0152061D01*
X0346309Y0153825D01*
X0344958Y0155176D01*
X0346175Y0153959D02*
X0357089Y0153959D01*
X0357878Y0152960D02*
X0346667Y0152960D01*
X0347039Y0151962D02*
X0357878Y0151962D01*
X0357878Y0150963D02*
X0347039Y0150963D01*
X0346962Y0149964D02*
X0357878Y0149964D01*
X0357878Y0148966D02*
X0346548Y0148966D01*
X0345889Y0147967D02*
X0357878Y0147967D01*
X0357878Y0146969D02*
X0344794Y0146969D01*
X0339685Y0146969D02*
X0335392Y0146969D01*
X0335627Y0147140D02*
X0336206Y0147719D01*
X0336687Y0148381D01*
X0337058Y0149110D01*
X0337311Y0149889D01*
X0337425Y0150606D01*
X0332739Y0150606D01*
X0332739Y0145921D01*
X0333457Y0146034D01*
X0334236Y0146287D01*
X0334965Y0146659D01*
X0335627Y0147140D01*
X0336386Y0147967D02*
X0338590Y0147967D01*
X0337931Y0148966D02*
X0336985Y0148966D01*
X0337323Y0149964D02*
X0337517Y0149964D01*
X0337439Y0150963D02*
X0332739Y0150963D01*
X0332739Y0150606D02*
X0332739Y0151606D01*
X0331739Y0151606D01*
X0331739Y0150606D01*
X0327054Y0150606D01*
X0327167Y0149889D01*
X0327420Y0149110D01*
X0327792Y0148381D01*
X0328273Y0147719D01*
X0328852Y0147140D01*
X0329514Y0146659D01*
X0330243Y0146287D01*
X0331022Y0146034D01*
X0331739Y0145921D01*
X0331739Y0150606D01*
X0332739Y0150606D01*
X0332739Y0149964D02*
X0331739Y0149964D01*
X0331739Y0148966D02*
X0332739Y0148966D01*
X0332739Y0147967D02*
X0331739Y0147967D01*
X0331739Y0146969D02*
X0332739Y0146969D01*
X0332739Y0145970D02*
X0331739Y0145970D01*
X0331425Y0145970D02*
X0303776Y0145970D01*
X0302777Y0144972D02*
X0357878Y0144972D01*
X0357878Y0145970D02*
X0333054Y0145970D01*
X0329087Y0146969D02*
X0324794Y0146969D01*
X0324958Y0147037D02*
X0326309Y0148387D01*
X0327039Y0150152D01*
X0327039Y0152061D01*
X0326309Y0153825D01*
X0324958Y0155176D01*
X0323194Y0155906D01*
X0321285Y0155906D01*
X0319520Y0155176D01*
X0318170Y0153825D01*
X0317439Y0152061D01*
X0317439Y0150152D01*
X0318170Y0148387D01*
X0319520Y0147037D01*
X0321285Y0146306D01*
X0323194Y0146306D01*
X0324958Y0147037D01*
X0325889Y0147967D02*
X0328092Y0147967D01*
X0327494Y0148966D02*
X0326548Y0148966D01*
X0326962Y0149964D02*
X0327155Y0149964D01*
X0327039Y0150963D02*
X0331739Y0150963D01*
X0331739Y0151606D02*
X0327054Y0151606D01*
X0327167Y0152324D01*
X0327420Y0153102D01*
X0327792Y0153832D01*
X0328273Y0154494D01*
X0328852Y0155073D01*
X0329514Y0155554D01*
X0330243Y0155925D01*
X0331022Y0156178D01*
X0331739Y0156292D01*
X0331739Y0151606D01*
X0331739Y0151962D02*
X0332739Y0151962D01*
X0332739Y0151606D02*
X0332739Y0156292D01*
X0333457Y0156178D01*
X0334236Y0155925D01*
X0334965Y0155554D01*
X0335627Y0155073D01*
X0336206Y0154494D01*
X0336687Y0153832D01*
X0337058Y0153102D01*
X0337311Y0152324D01*
X0337425Y0151606D01*
X0332739Y0151606D01*
X0332739Y0152960D02*
X0331739Y0152960D01*
X0331739Y0153959D02*
X0332739Y0153959D01*
X0332739Y0154957D02*
X0331739Y0154957D01*
X0331739Y0155956D02*
X0332739Y0155956D01*
X0334143Y0155956D02*
X0357250Y0155956D01*
X0358248Y0156954D02*
X0314759Y0156954D01*
X0313761Y0155956D02*
X0330336Y0155956D01*
X0328736Y0154957D02*
X0325177Y0154957D01*
X0326175Y0153959D02*
X0327884Y0153959D01*
X0327374Y0152960D02*
X0326667Y0152960D01*
X0327039Y0151962D02*
X0327110Y0151962D01*
X0319302Y0154957D02*
X0312762Y0154957D01*
X0311764Y0153959D02*
X0318303Y0153959D01*
X0317812Y0152960D02*
X0310765Y0152960D01*
X0309767Y0151962D02*
X0317439Y0151962D01*
X0317439Y0150963D02*
X0308768Y0150963D01*
X0307770Y0149964D02*
X0317517Y0149964D01*
X0317931Y0148966D02*
X0306771Y0148966D01*
X0305773Y0147967D02*
X0318590Y0147967D01*
X0319685Y0146969D02*
X0304774Y0146969D01*
X0301779Y0143973D02*
X0357878Y0143973D01*
X0357878Y0142975D02*
X0301164Y0142975D01*
X0300898Y0141976D02*
X0357878Y0141976D01*
X0357878Y0140978D02*
X0299899Y0140978D01*
X0297651Y0140978D02*
X0257164Y0140978D01*
X0257857Y0139979D02*
X0320853Y0139979D01*
X0321285Y0140158D02*
X0319520Y0139427D01*
X0318170Y0138077D01*
X0317439Y0136313D01*
X0317439Y0134403D01*
X0318170Y0132639D01*
X0319520Y0131289D01*
X0321285Y0130558D01*
X0323194Y0130558D01*
X0324958Y0131289D01*
X0326309Y0132639D01*
X0327039Y0134403D01*
X0327039Y0136313D01*
X0326309Y0138077D01*
X0324958Y0139427D01*
X0323194Y0140158D01*
X0321285Y0140158D01*
X0323626Y0139979D02*
X0329855Y0139979D01*
X0329514Y0139806D02*
X0328852Y0139325D01*
X0328273Y0138746D01*
X0327792Y0138084D01*
X0327420Y0137354D01*
X0327167Y0136576D01*
X0327054Y0135858D01*
X0331739Y0135858D01*
X0331739Y0134858D01*
X0327054Y0134858D01*
X0327167Y0134141D01*
X0327420Y0133362D01*
X0327792Y0132633D01*
X0328273Y0131971D01*
X0328852Y0131392D01*
X0329514Y0130911D01*
X0330243Y0130539D01*
X0331022Y0130286D01*
X0331739Y0130173D01*
X0331739Y0134858D01*
X0332739Y0134858D01*
X0332739Y0130173D01*
X0333457Y0130286D01*
X0334236Y0130539D01*
X0334965Y0130911D01*
X0335627Y0131392D01*
X0336206Y0131971D01*
X0336687Y0132633D01*
X0337058Y0133362D01*
X0337311Y0134141D01*
X0337425Y0134858D01*
X0332739Y0134858D01*
X0332739Y0135858D01*
X0331739Y0135858D01*
X0331739Y0140544D01*
X0331022Y0140430D01*
X0330243Y0140177D01*
X0329514Y0139806D01*
X0328508Y0138981D02*
X0325405Y0138981D01*
X0326348Y0137982D02*
X0327740Y0137982D01*
X0327300Y0136984D02*
X0326762Y0136984D01*
X0327039Y0135985D02*
X0327074Y0135985D01*
X0327039Y0134987D02*
X0331739Y0134987D01*
X0331739Y0135985D02*
X0332739Y0135985D01*
X0332739Y0135858D02*
X0332739Y0140544D01*
X0333457Y0140430D01*
X0334236Y0140177D01*
X0334965Y0139806D01*
X0335627Y0139325D01*
X0336206Y0138746D01*
X0336687Y0138084D01*
X0337058Y0137354D01*
X0337311Y0136576D01*
X0337425Y0135858D01*
X0332739Y0135858D01*
X0332739Y0134987D02*
X0337439Y0134987D01*
X0337439Y0134403D02*
X0338170Y0132639D01*
X0339520Y0131289D01*
X0341285Y0130558D01*
X0343194Y0130558D01*
X0344958Y0131289D01*
X0346309Y0132639D01*
X0347039Y0134403D01*
X0347039Y0136313D01*
X0346309Y0138077D01*
X0344958Y0139427D01*
X0343194Y0140158D01*
X0341285Y0140158D01*
X0339520Y0139427D01*
X0338170Y0138077D01*
X0337439Y0136313D01*
X0337439Y0134403D01*
X0337611Y0133988D02*
X0337262Y0133988D01*
X0336869Y0132990D02*
X0338025Y0132990D01*
X0338818Y0131991D02*
X0336221Y0131991D01*
X0335078Y0130993D02*
X0340236Y0130993D01*
X0344243Y0130993D02*
X0357878Y0130993D01*
X0357878Y0131991D02*
X0345661Y0131991D01*
X0346454Y0132990D02*
X0357878Y0132990D01*
X0357878Y0133988D02*
X0346867Y0133988D01*
X0347039Y0134987D02*
X0357878Y0134987D01*
X0357878Y0135985D02*
X0347039Y0135985D01*
X0346762Y0136984D02*
X0357878Y0136984D01*
X0357878Y0137982D02*
X0346348Y0137982D01*
X0345405Y0138981D02*
X0357878Y0138981D01*
X0357878Y0139979D02*
X0343626Y0139979D01*
X0340853Y0139979D02*
X0334624Y0139979D01*
X0335971Y0138981D02*
X0339074Y0138981D01*
X0338131Y0137982D02*
X0336738Y0137982D01*
X0337179Y0136984D02*
X0337717Y0136984D01*
X0337439Y0135985D02*
X0337405Y0135985D01*
X0332739Y0136984D02*
X0331739Y0136984D01*
X0331739Y0137982D02*
X0332739Y0137982D01*
X0332739Y0138981D02*
X0331739Y0138981D01*
X0331739Y0139979D02*
X0332739Y0139979D01*
X0332739Y0133988D02*
X0331739Y0133988D01*
X0331739Y0132990D02*
X0332739Y0132990D01*
X0332739Y0131991D02*
X0331739Y0131991D01*
X0331739Y0130993D02*
X0332739Y0130993D01*
X0329401Y0130993D02*
X0324243Y0130993D01*
X0325661Y0131991D02*
X0328258Y0131991D01*
X0327610Y0132990D02*
X0326454Y0132990D01*
X0326867Y0133988D02*
X0327217Y0133988D01*
X0320236Y0130993D02*
X0281479Y0130993D01*
X0281479Y0131991D02*
X0318818Y0131991D01*
X0318025Y0132990D02*
X0280900Y0132990D01*
X0279090Y0131421D02*
X0261373Y0131421D01*
X0253499Y0123547D01*
X0253690Y0126000D02*
X0219961Y0126000D01*
X0220455Y0126999D02*
X0254688Y0126999D01*
X0255687Y0127997D02*
X0244464Y0127997D01*
X0243657Y0129453D02*
X0244025Y0129821D01*
X0245435Y0129821D01*
X0254909Y0139295D01*
X0255468Y0139295D01*
X0253772Y0140978D02*
X0253227Y0140978D01*
X0251531Y0139295D02*
X0243657Y0131421D01*
X0210192Y0131421D01*
X0218066Y0127484D02*
X0220035Y0129453D01*
X0243657Y0129453D01*
X0246873Y0128996D02*
X0256685Y0128996D01*
X0257684Y0129994D02*
X0247871Y0129994D01*
X0248870Y0130993D02*
X0258682Y0130993D01*
X0259681Y0131991D02*
X0249868Y0131991D01*
X0250867Y0132990D02*
X0260679Y0132990D01*
X0261211Y0128996D02*
X0269349Y0128996D01*
X0268827Y0127997D02*
X0260212Y0127997D01*
X0259213Y0126999D02*
X0268827Y0126999D01*
X0269321Y0126000D02*
X0258215Y0126000D01*
X0251865Y0133988D02*
X0317611Y0133988D01*
X0317439Y0134987D02*
X0252864Y0134987D01*
X0253862Y0135985D02*
X0317439Y0135985D01*
X0317717Y0136984D02*
X0256535Y0136984D01*
X0257533Y0137982D02*
X0318131Y0137982D01*
X0319074Y0138981D02*
X0257857Y0138981D01*
X0271216Y0127484D02*
X0272764Y0125936D01*
X0273605Y0127997D02*
X0356080Y0127997D01*
X0357079Y0128996D02*
X0273083Y0128996D01*
X0281041Y0129994D02*
X0357878Y0129994D01*
X0356278Y0111736D02*
X0277121Y0111736D01*
X0278788Y0110024D02*
X0354612Y0110024D01*
X0360267Y0108027D02*
X0344728Y0108027D01*
X0344958Y0107931D02*
X0343194Y0108662D01*
X0341285Y0108662D01*
X0339520Y0107931D01*
X0338170Y0106581D01*
X0337439Y0104817D01*
X0337439Y0102907D01*
X0338170Y0101143D01*
X0339520Y0099793D01*
X0341285Y0099062D01*
X0343194Y0099062D01*
X0344958Y0099793D01*
X0346309Y0101143D01*
X0347039Y0102907D01*
X0347039Y0104817D01*
X0346309Y0106581D01*
X0344958Y0107931D01*
X0345861Y0107028D02*
X0360267Y0107028D01*
X0360267Y0106030D02*
X0346537Y0106030D01*
X0346951Y0105031D02*
X0360267Y0105031D01*
X0360267Y0104033D02*
X0347039Y0104033D01*
X0347039Y0103034D02*
X0360267Y0103034D01*
X0360267Y0102036D02*
X0346678Y0102036D01*
X0346203Y0101037D02*
X0360267Y0101037D01*
X0360267Y0100039D02*
X0345204Y0100039D01*
X0339275Y0100039D02*
X0335770Y0100039D01*
X0336615Y0101037D02*
X0338276Y0101037D01*
X0337800Y0102036D02*
X0337114Y0102036D01*
X0337373Y0103034D02*
X0337439Y0103034D01*
X0337439Y0104033D02*
X0332739Y0104033D01*
X0332739Y0105031D02*
X0331739Y0105031D01*
X0331739Y0106030D02*
X0332739Y0106030D01*
X0332739Y0107028D02*
X0331739Y0107028D01*
X0331739Y0108027D02*
X0332739Y0108027D01*
X0335354Y0108027D02*
X0339751Y0108027D01*
X0338618Y0107028D02*
X0336367Y0107028D01*
X0336971Y0106030D02*
X0337942Y0106030D01*
X0337528Y0105031D02*
X0337319Y0105031D01*
X0335160Y0113336D02*
X0335627Y0113675D01*
X0336206Y0114254D01*
X0336687Y0114916D01*
X0337058Y0115646D01*
X0337311Y0116424D01*
X0337425Y0117142D01*
X0332739Y0117142D01*
X0332739Y0118142D01*
X0337425Y0118142D01*
X0337311Y0118859D01*
X0337058Y0119638D01*
X0336687Y0120367D01*
X0336206Y0121029D01*
X0335627Y0121608D01*
X0335160Y0121947D01*
X0340091Y0121947D01*
X0339520Y0121711D01*
X0338170Y0120361D01*
X0337439Y0118597D01*
X0337439Y0116687D01*
X0338170Y0114923D01*
X0339520Y0113572D01*
X0340091Y0113336D01*
X0335160Y0113336D01*
X0335970Y0114018D02*
X0339075Y0114018D01*
X0338131Y0115017D02*
X0336738Y0115017D01*
X0337179Y0116015D02*
X0337718Y0116015D01*
X0337439Y0117014D02*
X0337405Y0117014D01*
X0337439Y0118012D02*
X0332739Y0118012D01*
X0331739Y0118012D02*
X0327039Y0118012D01*
X0327054Y0118142D02*
X0331739Y0118142D01*
X0331739Y0117142D01*
X0327054Y0117142D01*
X0327167Y0116424D01*
X0327420Y0115646D01*
X0327792Y0114916D01*
X0328273Y0114254D01*
X0328852Y0113675D01*
X0329319Y0113336D01*
X0324388Y0113336D01*
X0324958Y0113572D01*
X0326309Y0114923D01*
X0327039Y0116687D01*
X0327039Y0118597D01*
X0326309Y0120361D01*
X0324958Y0121711D01*
X0324388Y0121947D01*
X0329319Y0121947D01*
X0328852Y0121608D01*
X0328273Y0121029D01*
X0327792Y0120367D01*
X0327420Y0119638D01*
X0327167Y0118859D01*
X0327054Y0118142D01*
X0327217Y0119011D02*
X0326868Y0119011D01*
X0326454Y0120009D02*
X0327610Y0120009D01*
X0328257Y0121008D02*
X0325662Y0121008D01*
X0327039Y0117014D02*
X0327074Y0117014D01*
X0327300Y0116015D02*
X0326761Y0116015D01*
X0326348Y0115017D02*
X0327741Y0115017D01*
X0328509Y0114018D02*
X0325404Y0114018D01*
X0318618Y0107028D02*
X0270312Y0107028D01*
X0271311Y0106030D02*
X0317942Y0106030D01*
X0317528Y0105031D02*
X0272309Y0105031D01*
X0273308Y0104033D02*
X0317439Y0104033D01*
X0317439Y0103034D02*
X0274306Y0103034D01*
X0274621Y0100457D02*
X0267279Y0107799D01*
X0274621Y0100457D02*
X0286846Y0100457D01*
X0288645Y0102036D02*
X0317800Y0102036D01*
X0318276Y0101037D02*
X0289235Y0101037D01*
X0289235Y0100039D02*
X0319275Y0100039D01*
X0325204Y0100039D02*
X0328709Y0100039D01*
X0327864Y0101037D02*
X0326203Y0101037D01*
X0326678Y0102036D02*
X0327365Y0102036D01*
X0327106Y0103034D02*
X0327039Y0103034D01*
X0330252Y0099040D02*
X0288808Y0099040D01*
X0275233Y0096045D02*
X0309233Y0096045D01*
X0311939Y0096045D02*
X0360267Y0096045D01*
X0360267Y0097043D02*
X0274234Y0097043D01*
X0275999Y0082543D02*
X0275665Y0082209D01*
X0292858Y0084063D02*
X0317164Y0084063D01*
X0311996Y0092051D02*
X0360267Y0092051D01*
X0360267Y0093049D02*
X0312975Y0093049D01*
X0312975Y0094048D02*
X0360267Y0094048D01*
X0360267Y0095046D02*
X0312938Y0095046D01*
X0293388Y0083064D02*
X0360267Y0083064D01*
X0360267Y0082066D02*
X0293388Y0082066D01*
X0250434Y0114018D02*
X0128891Y0114018D01*
X0129328Y0113837D02*
X0127564Y0114568D01*
X0125655Y0114568D01*
X0123891Y0113837D01*
X0122540Y0112487D01*
X0121810Y0110722D01*
X0121810Y0108813D01*
X0122540Y0107049D01*
X0123891Y0105698D01*
X0125655Y0104968D01*
X0127564Y0104968D01*
X0129328Y0105698D01*
X0130679Y0107049D01*
X0131410Y0108813D01*
X0131410Y0110722D01*
X0130679Y0112487D01*
X0129328Y0113837D01*
X0130146Y0113020D02*
X0249436Y0113020D01*
X0248846Y0112021D02*
X0234939Y0112021D01*
X0234804Y0112157D02*
X0232825Y0112157D01*
X0231425Y0110757D01*
X0231425Y0108778D01*
X0232825Y0107379D01*
X0234804Y0107379D01*
X0236203Y0108778D01*
X0236203Y0110757D01*
X0234804Y0112157D01*
X0235938Y0111023D02*
X0247996Y0111023D01*
X0246997Y0110024D02*
X0236203Y0110024D01*
X0236203Y0109026D02*
X0245999Y0109026D01*
X0245000Y0108027D02*
X0235452Y0108027D01*
X0232176Y0108027D02*
X0131084Y0108027D01*
X0131410Y0109026D02*
X0231425Y0109026D01*
X0231425Y0110024D02*
X0131410Y0110024D01*
X0131285Y0111023D02*
X0231691Y0111023D01*
X0232689Y0112021D02*
X0130872Y0112021D01*
X0130659Y0107028D02*
X0244002Y0107028D01*
X0243003Y0106030D02*
X0129660Y0106030D01*
X0127718Y0105031D02*
X0242005Y0105031D01*
X0241006Y0104033D02*
X0107361Y0104033D01*
X0107361Y0105031D02*
X0115501Y0105031D01*
X0115655Y0104968D02*
X0117564Y0104968D01*
X0119328Y0105698D01*
X0120679Y0107049D01*
X0121410Y0108813D01*
X0121410Y0110722D01*
X0120679Y0112487D01*
X0119328Y0113837D01*
X0117564Y0114568D01*
X0115655Y0114568D01*
X0113891Y0113837D01*
X0112540Y0112487D01*
X0111810Y0110722D01*
X0111810Y0108813D01*
X0112540Y0107049D01*
X0113891Y0105698D01*
X0115655Y0104968D01*
X0117718Y0105031D02*
X0125501Y0105031D01*
X0123559Y0106030D02*
X0119660Y0106030D01*
X0120659Y0107028D02*
X0122561Y0107028D01*
X0122135Y0108027D02*
X0121084Y0108027D01*
X0121410Y0109026D02*
X0121810Y0109026D01*
X0121810Y0110024D02*
X0121410Y0110024D01*
X0121285Y0111023D02*
X0121934Y0111023D01*
X0122347Y0112021D02*
X0120872Y0112021D01*
X0120146Y0113020D02*
X0123073Y0113020D01*
X0124328Y0114018D02*
X0118891Y0114018D01*
X0114328Y0114018D02*
X0107361Y0114018D01*
X0107361Y0113020D02*
X0113073Y0113020D01*
X0112347Y0112021D02*
X0107361Y0112021D01*
X0107361Y0111023D02*
X0111934Y0111023D01*
X0111810Y0110024D02*
X0107361Y0110024D01*
X0107361Y0109026D02*
X0111810Y0109026D01*
X0112135Y0108027D02*
X0107361Y0108027D01*
X0107361Y0107028D02*
X0112561Y0107028D01*
X0113559Y0106030D02*
X0107361Y0106030D01*
X0107361Y0103034D02*
X0240008Y0103034D01*
X0239009Y0102036D02*
X0107361Y0102036D01*
X0107361Y0101037D02*
X0238011Y0101037D01*
X0237012Y0100039D02*
X0222555Y0100039D01*
X0224223Y0099040D02*
X0236014Y0099040D01*
X0235015Y0098042D02*
X0225121Y0098042D01*
X0219404Y0100039D02*
X0213518Y0100039D01*
X0214789Y0099040D02*
X0217736Y0099040D01*
X0216839Y0098042D02*
X0215519Y0098042D01*
X0215944Y0097043D02*
X0216425Y0097043D01*
X0216180Y0096045D02*
X0216157Y0096045D01*
X0211480Y0096045D02*
X0210480Y0096045D01*
X0210480Y0097043D02*
X0211480Y0097043D01*
X0211480Y0098042D02*
X0210480Y0098042D01*
X0210480Y0099040D02*
X0211480Y0099040D01*
X0211480Y0100039D02*
X0210480Y0100039D01*
X0208441Y0100039D02*
X0107361Y0100039D01*
X0107361Y0099040D02*
X0207170Y0099040D01*
X0206441Y0098042D02*
X0107361Y0098042D01*
X0107361Y0097043D02*
X0206015Y0097043D01*
X0205802Y0096045D02*
X0107361Y0096045D01*
X0107361Y0073079D02*
X0203090Y0073079D01*
X0202457Y0072081D02*
X0107361Y0072081D01*
X0107361Y0071082D02*
X0202457Y0071082D01*
X0202840Y0070084D02*
X0107361Y0070084D01*
X0107361Y0049115D02*
X0117447Y0049115D01*
X0115685Y0048116D02*
X0107361Y0048116D01*
X0107361Y0047118D02*
X0114351Y0047118D01*
X0113352Y0046119D02*
X0107361Y0046119D01*
X0107361Y0045121D02*
X0112565Y0045121D01*
X0111988Y0044122D02*
X0107361Y0044122D01*
X0107361Y0043124D02*
X0111412Y0043124D01*
X0111145Y0042125D02*
X0107402Y0042125D01*
X0107458Y0041127D02*
X0110877Y0041127D01*
X0110667Y0040128D02*
X0107630Y0040128D01*
X0107858Y0039130D02*
X0110667Y0039130D01*
X0110667Y0038131D02*
X0108086Y0038131D01*
X0108313Y0037133D02*
X0110755Y0037133D01*
X0111023Y0036134D02*
X0108718Y0036134D01*
X0109199Y0035136D02*
X0111290Y0035136D01*
X0111725Y0034137D02*
X0109680Y0034137D01*
X0110169Y0033139D02*
X0112301Y0033139D01*
X0112896Y0032140D02*
X0110965Y0032140D01*
X0111761Y0031142D02*
X0113894Y0031142D01*
X0114895Y0030143D02*
X0112558Y0030143D01*
X0113735Y0029145D02*
X0116624Y0029145D01*
X0114987Y0028146D02*
X0119471Y0028146D01*
X0118554Y0026149D02*
X0178175Y0026149D01*
X0176652Y0027148D02*
X0116480Y0027148D01*
X0131807Y0043124D02*
X0205800Y0043124D01*
X0204802Y0044122D02*
X0131231Y0044122D01*
X0130654Y0045121D02*
X0204457Y0045121D01*
X0204457Y0046119D02*
X0129867Y0046119D01*
X0128868Y0047118D02*
X0205128Y0047118D01*
X0207891Y0043124D02*
X0221498Y0043124D01*
X0214630Y0036134D02*
X0335432Y0036134D01*
X0335700Y0035136D02*
X0215289Y0035136D01*
X0215049Y0035715D02*
X0215780Y0033951D01*
X0215780Y0032041D01*
X0215049Y0030277D01*
X0213699Y0028927D01*
X0211934Y0028196D01*
X0210025Y0028196D01*
X0208261Y0028927D01*
X0206910Y0030277D01*
X0206180Y0032041D01*
X0206180Y0033951D01*
X0206910Y0035715D01*
X0208261Y0037065D01*
X0210025Y0037796D01*
X0211934Y0037796D01*
X0213699Y0037065D01*
X0215049Y0035715D01*
X0215702Y0034137D02*
X0336134Y0034137D01*
X0336711Y0033139D02*
X0215780Y0033139D01*
X0215780Y0032140D02*
X0337305Y0032140D01*
X0338304Y0031142D02*
X0215407Y0031142D01*
X0214915Y0030143D02*
X0339304Y0030143D01*
X0341033Y0029145D02*
X0213916Y0029145D01*
X0208043Y0029145D02*
X0204482Y0029145D01*
X0204367Y0029030D02*
X0204946Y0029608D01*
X0205427Y0030271D01*
X0205799Y0031000D01*
X0206052Y0031778D01*
X0206165Y0032496D01*
X0201480Y0032496D01*
X0201480Y0033496D01*
X0206165Y0033496D01*
X0206052Y0034214D01*
X0205799Y0034992D01*
X0205427Y0035721D01*
X0204946Y0036384D01*
X0204367Y0036962D01*
X0203705Y0037443D01*
X0202976Y0037815D01*
X0202197Y0038068D01*
X0201480Y0038182D01*
X0201480Y0033496D01*
X0200480Y0033496D01*
X0200480Y0038182D01*
X0199762Y0038068D01*
X0198983Y0037815D01*
X0198254Y0037443D01*
X0197592Y0036962D01*
X0197013Y0036384D01*
X0196532Y0035721D01*
X0196161Y0034992D01*
X0195908Y0034214D01*
X0195794Y0033496D01*
X0200480Y0033496D01*
X0200480Y0032496D01*
X0201480Y0032496D01*
X0201480Y0027810D01*
X0202197Y0027924D01*
X0202976Y0028177D01*
X0203705Y0028549D01*
X0204367Y0029030D01*
X0205334Y0030143D02*
X0207044Y0030143D01*
X0206552Y0031142D02*
X0205845Y0031142D01*
X0206109Y0032140D02*
X0206180Y0032140D01*
X0206180Y0033139D02*
X0201480Y0033139D01*
X0201480Y0034137D02*
X0200480Y0034137D01*
X0200480Y0033139D02*
X0190102Y0033139D01*
X0190102Y0032140D02*
X0189102Y0032140D01*
X0189102Y0031142D02*
X0190102Y0031142D01*
X0190102Y0030143D02*
X0189102Y0030143D01*
X0189102Y0029145D02*
X0190102Y0029145D01*
X0190102Y0028146D02*
X0189102Y0028146D01*
X0189102Y0027148D02*
X0190102Y0027148D01*
X0190102Y0026149D02*
X0189102Y0026149D01*
X0187241Y0026149D02*
X0181028Y0026149D01*
X0182551Y0027148D02*
X0186109Y0027148D01*
X0185494Y0028146D02*
X0183273Y0028146D01*
X0183687Y0029145D02*
X0185180Y0029145D01*
X0185102Y0030143D02*
X0183702Y0030143D01*
X0183702Y0031142D02*
X0185102Y0031142D01*
X0185102Y0032140D02*
X0183702Y0032140D01*
X0192832Y0039130D02*
X0335076Y0039130D01*
X0335076Y0038131D02*
X0201798Y0038131D01*
X0201480Y0038131D02*
X0200480Y0038131D01*
X0200161Y0038131D02*
X0193564Y0038131D01*
X0193964Y0037133D02*
X0197826Y0037133D01*
X0196832Y0036134D02*
X0194102Y0036134D01*
X0194102Y0035136D02*
X0196234Y0035136D01*
X0195896Y0034137D02*
X0194102Y0034137D01*
X0194102Y0032140D02*
X0195850Y0032140D01*
X0195794Y0032496D02*
X0195908Y0031778D01*
X0196161Y0031000D01*
X0196532Y0030271D01*
X0197013Y0029608D01*
X0197592Y0029030D01*
X0198254Y0028549D01*
X0198983Y0028177D01*
X0199762Y0027924D01*
X0200480Y0027810D01*
X0200480Y0032496D01*
X0195794Y0032496D01*
X0196115Y0031142D02*
X0194102Y0031142D01*
X0194102Y0030143D02*
X0196625Y0030143D01*
X0197477Y0029145D02*
X0194023Y0029145D01*
X0193709Y0028146D02*
X0199079Y0028146D01*
X0200480Y0028146D02*
X0201480Y0028146D01*
X0201480Y0029145D02*
X0200480Y0029145D01*
X0200480Y0030143D02*
X0201480Y0030143D01*
X0201480Y0031142D02*
X0200480Y0031142D01*
X0200480Y0032140D02*
X0201480Y0032140D01*
X0201480Y0035136D02*
X0200480Y0035136D01*
X0200480Y0036134D02*
X0201480Y0036134D01*
X0201480Y0037133D02*
X0200480Y0037133D01*
X0204133Y0037133D02*
X0208423Y0037133D01*
X0207330Y0036134D02*
X0205127Y0036134D01*
X0205726Y0035136D02*
X0206670Y0035136D01*
X0206257Y0034137D02*
X0206064Y0034137D01*
X0202880Y0028146D02*
X0343880Y0028146D01*
X0335164Y0037133D02*
X0213536Y0037133D01*
X0234026Y0077073D02*
X0238125Y0077073D01*
X0239123Y0078072D02*
X0234235Y0078072D01*
X0234235Y0079070D02*
X0240122Y0079070D01*
X0241121Y0080069D02*
X0233427Y0080069D01*
X0211480Y0091052D02*
X0210480Y0091052D01*
X0210480Y0092051D02*
X0211480Y0092051D01*
X0211480Y0093049D02*
X0210480Y0093049D01*
X0183814Y0144972D02*
X0292449Y0144972D01*
X0315758Y0157953D02*
X0360267Y0157953D01*
X0360267Y0158951D02*
X0316756Y0158951D01*
X0317755Y0159950D02*
X0360267Y0159950D01*
X0360267Y0160948D02*
X0318753Y0160948D01*
X0317869Y0167938D02*
X0360267Y0167938D01*
X0360267Y0168936D02*
X0318868Y0168936D01*
X0319866Y0169935D02*
X0360267Y0169935D01*
X0360267Y0170933D02*
X0320060Y0170933D01*
X0320060Y0171932D02*
X0360267Y0171932D01*
X0360267Y0172930D02*
X0320060Y0172930D01*
X0320060Y0173929D02*
X0360267Y0173929D01*
X0360267Y0174927D02*
X0320060Y0174927D01*
X0320060Y0175926D02*
X0360267Y0175926D01*
X0360267Y0176924D02*
X0320060Y0176924D01*
X0320060Y0177923D02*
X0360267Y0177923D01*
X0360267Y0178921D02*
X0320060Y0178921D01*
X0320060Y0179920D02*
X0360267Y0179920D01*
X0360267Y0180918D02*
X0320060Y0180918D01*
X0320060Y0181917D02*
X0360267Y0181917D01*
X0360267Y0182915D02*
X0320060Y0182915D01*
X0320060Y0183914D02*
X0360267Y0183914D01*
X0360267Y0184912D02*
X0320060Y0184912D01*
X0320060Y0185911D02*
X0360267Y0185911D01*
X0360267Y0186909D02*
X0320060Y0186909D01*
X0319354Y0187908D02*
X0360267Y0187908D01*
X0360267Y0188906D02*
X0318880Y0188906D01*
X0318473Y0189905D02*
X0360267Y0189905D01*
X0360267Y0166939D02*
X0357187Y0166939D01*
X0358185Y0165941D02*
X0360267Y0165941D01*
X0339302Y0154957D02*
X0335743Y0154957D01*
X0336595Y0153959D02*
X0338303Y0153959D01*
X0337812Y0152960D02*
X0337105Y0152960D01*
X0337369Y0151962D02*
X0337439Y0151962D01*
X0336222Y0121008D02*
X0338817Y0121008D01*
X0338025Y0120009D02*
X0336869Y0120009D01*
X0337262Y0119011D02*
X0337611Y0119011D01*
X0289521Y0187908D02*
X0223351Y0187908D01*
X0222938Y0188906D02*
X0290519Y0188906D01*
X0245338Y0215866D02*
X0244338Y0215866D01*
X0244338Y0216865D02*
X0245338Y0216865D01*
X0245338Y0217863D02*
X0244338Y0217863D01*
X0241627Y0215866D02*
X0240755Y0215866D01*
X0238932Y0222856D02*
X0238932Y0222856D01*
X0238932Y0223854D02*
X0238932Y0223854D01*
X0229655Y0224853D02*
X0215186Y0224853D01*
X0216184Y0223854D02*
X0226597Y0223854D01*
X0226310Y0222856D02*
X0224243Y0222856D01*
X0221338Y0222856D02*
X0217183Y0222856D01*
X0214187Y0225851D02*
X0229241Y0225851D01*
X0228964Y0226850D02*
X0213189Y0226850D01*
X0212190Y0227848D02*
X0228964Y0227848D01*
X0228908Y0228847D02*
X0211192Y0228847D01*
X0204867Y0212871D02*
X0227726Y0212871D01*
X0228725Y0211872D02*
X0203868Y0211872D01*
X0228696Y0222760D02*
X0228696Y0224457D01*
X0228696Y0222760D01*
X0228696Y0222760D01*
X0228696Y0222856D02*
X0228696Y0222856D01*
X0228696Y0223854D02*
X0228696Y0223854D01*
X0231030Y0211872D02*
X0232662Y0211872D01*
X0181051Y0148966D02*
X0107361Y0148966D01*
X0107361Y0147967D02*
X0180244Y0147967D01*
X0180244Y0146969D02*
X0107361Y0146969D01*
X0107361Y0145970D02*
X0180453Y0145970D01*
X0181452Y0144972D02*
X0107361Y0144972D01*
X0137358Y0113705D02*
X0145232Y0105831D01*
X0145369Y0105693D01*
X0145369Y0093764D01*
X0348047Y0232841D02*
X0360267Y0232841D01*
X0360267Y0233839D02*
X0350953Y0233839D01*
X0352683Y0234838D02*
X0360267Y0234838D01*
X0360267Y0235836D02*
X0353705Y0235836D01*
X0354703Y0236835D02*
X0360267Y0236835D01*
X0360267Y0237833D02*
X0355310Y0237833D01*
X0355886Y0238832D02*
X0360267Y0238832D01*
X0360259Y0239830D02*
X0356330Y0239830D01*
X0356598Y0240829D02*
X0360203Y0240829D01*
X0360129Y0241828D02*
X0356866Y0241828D01*
X0356961Y0242826D02*
X0359901Y0242826D01*
X0359673Y0243825D02*
X0356961Y0243825D01*
X0356961Y0244823D02*
X0359446Y0244823D01*
X0359186Y0245822D02*
X0356759Y0245822D01*
X0356492Y0246820D02*
X0358705Y0246820D01*
X0358224Y0247819D02*
X0356224Y0247819D01*
X0355657Y0248817D02*
X0357743Y0248817D01*
X0357120Y0249816D02*
X0355081Y0249816D01*
X0354306Y0250814D02*
X0356323Y0250814D01*
X0355527Y0251813D02*
X0353307Y0251813D01*
X0354610Y0252811D02*
X0351995Y0252811D01*
D21*
X0251531Y0111736D02*
X0250483Y0110688D01*
X0250483Y0110540D01*
X0235439Y0095496D01*
X0220980Y0095496D01*
D22*
X0255999Y0047957D02*
X0257436Y0047957D01*
X0265999Y0047957D01*
X0267279Y0047957D01*
X0275999Y0047957D01*
X0277121Y0047957D01*
X0284995Y0047957D01*
X0285999Y0047957D01*
X0255999Y0047957D02*
X0251399Y0043357D01*
X0224094Y0043357D01*
X0221994Y0045457D01*
X0206846Y0045457D01*
X0228696Y0220004D02*
X0228696Y0223154D01*
X0223972Y0227878D01*
D23*
X0245999Y0082543D02*
X0260999Y0082543D01*
X0275330Y0082543D01*
X0275665Y0082209D01*
X0275999Y0082543D02*
X0290999Y0082543D01*
X0284995Y0047957D02*
X0275999Y0047957D01*
X0277121Y0047957D02*
X0265999Y0047957D01*
X0267279Y0047957D02*
X0255999Y0047957D01*
X0257436Y0047957D02*
X0252536Y0043057D01*
X0223970Y0043057D01*
X0221570Y0045457D01*
X0206846Y0045457D01*
X0208381Y0054492D02*
X0208381Y0056776D01*
X0216098Y0064492D01*
X0227948Y0064492D01*
X0245999Y0082543D01*
D24*
X0346019Y0038902D03*
X0346019Y0243626D03*
X0121610Y0243626D03*
X0121610Y0038902D03*
M02*
